<svg width="320" height="320" viewBox="0 0 320 320" fill="none" xmlns="http://www.w3.org/2000/svg">
<g clip-path="url(#clip0_100_524)">
<path d="M158.135 58.7956C158.135 58.7956 152.373 52.097 144.24 56.8253C127.987 65.7414 110.037 66.8056 95.7455 55.6417C86.7491 50.5534 79.6173 55.059 72.8643 60.0265" fill="#BBC8FF"/>
<path d="M158.135 58.7956C158.135 58.7956 152.373 52.097 144.24 56.8253C127.987 65.7414 110.037 66.8056 95.7455 55.6417C86.7491 50.5534 79.6173 55.059 72.8643 60.0265" stroke="#2E5EF4" stroke-width="30" stroke-linecap="round" stroke-linejoin="round"/>
<path d="M15.8559 166.454L15.4483 166.298C15.3754 166.271 15.2931 166.307 15.2652 166.38L15.1094 166.788C15.0816 166.861 15.1184 166.943 15.1912 166.971L15.5988 167.127C15.6717 167.155 15.754 167.118 15.7819 167.045L15.9377 166.637C15.9656 166.564 15.9287 166.482 15.8559 166.454Z" fill="#768BFF"/>
<path d="M129.211 248.44L110.315 233.866L140.921 194.589L159.816 209.162L129.211 248.44Z" fill="#212E55"/>
<path d="M145.427 233.492L115.885 210.708L163.735 149.301L193.277 172.085L145.427 233.492Z" fill="#0035C0"/>
<path d="M110.761 221.201L99.8129 239.166L140.483 263.955C141.776 264.743 143.482 263.975 143.699 262.478C144.189 259.107 143.753 253.193 137.403 246.642C137.403 246.642 132.747 241.132 135.216 236.107L110.761 221.201Z" fill="#52C4C0"/>
<path d="M293.606 267.67C274.43 293.104 238.138 298.197 212.703 279.02C187.269 259.845 182.177 223.551 201.353 198.117C220.529 172.683 256.822 167.594 282.256 186.769C307.69 205.946 312.781 242.236 293.606 267.67ZM207.315 202.612C190.617 224.759 195.051 256.361 217.198 273.058C239.345 289.756 270.946 285.322 287.644 263.175C304.341 241.029 299.907 209.429 277.761 192.731C255.613 176.034 224.012 180.465 207.315 202.612Z" fill="#212E55"/>
<path d="M131.889 266.927C112.713 292.361 76.4228 297.452 50.988 278.275C25.5541 259.099 20.4605 222.807 39.6363 197.373C58.8121 171.939 95.1063 166.848 120.54 186.024C145.975 205.201 151.065 241.493 131.889 266.927ZM45.5983 201.868C28.9012 224.014 33.3359 255.615 55.4831 272.313C77.6293 289.01 109.23 284.578 125.927 262.432C142.625 240.284 138.192 208.682 116.046 191.985C93.8987 175.288 62.296 179.721 45.5983 201.868Z" fill="#212E55"/>
<path d="M166.002 113.052C165.272 114.258 164.465 115.384 163.575 116.426L118.702 89.2318C119.215 87.9603 119.84 86.724 120.572 85.5176C128.175 72.9726 144.502 68.9683 157.047 76.5704C169.593 84.1736 173.606 100.506 166.002 113.052Z" fill="#768BFF"/>
<path d="M147.132 86.1683C147.011 91.8995 143.017 96.4627 138.213 96.3614C133.408 96.259 129.613 91.5304 129.735 85.7992C129.856 80.068 133.85 75.5038 138.654 75.6062C143.459 75.7075 147.254 80.4371 147.132 86.1683Z" fill="#212E55"/>
<path d="M165.503 190.792C163.385 189.767 161.429 188.322 159.759 186.464L115.062 136.725C108.172 129.057 108.803 117.257 116.472 110.367C124.14 103.479 135.941 104.11 142.831 111.776L187.529 161.515C194.418 169.183 193.787 180.983 186.119 187.872C180.309 193.093 172.124 193.996 165.503 190.792Z" fill="#0035C0"/>
<path d="M196.143 124.278L132.441 91.6145L140.226 76.4406L203.928 109.104L196.143 124.278Z" fill="#212E55"/>
<path d="M163.119 236.842H85.9756C84.1591 236.842 82.5409 235.692 81.9447 233.974C81.3495 232.259 81.9041 230.354 83.3292 229.228L149.787 176.701C150.352 176.254 151.021 175.956 151.731 175.839L210.757 166.013C213.089 165.623 215.28 167.198 215.667 169.521C216.055 171.845 214.483 174.043 212.16 174.429L154.217 184.075L98.254 228.308H161.352L213.681 175.979C215.346 174.313 218.05 174.313 219.715 175.979C221.381 177.645 221.381 180.347 219.715 182.013L166.136 235.593C165.336 236.393 164.251 236.842 163.119 236.842Z" fill="#768BFF"/>
<path d="M247.323 236.844C245.739 236.844 244.216 235.957 243.478 234.435L191.481 127.023C190.843 125.7 190.928 124.142 191.708 122.897C192.488 121.652 193.854 120.897 195.323 120.897H218.32C222.62 120.897 226.59 122.85 229.213 126.256C231.836 129.663 232.711 134 231.613 138.157L230.152 143.684C229.55 145.963 227.211 147.317 224.937 146.719C222.659 146.116 221.3 143.782 221.903 141.503L223.363 135.976C223.78 134.401 223.447 132.756 222.453 131.463C221.457 130.171 219.951 129.43 218.32 129.43H202.129L251.16 230.716C252.187 232.836 251.3 235.39 249.179 236.417C248.58 236.706 247.947 236.844 247.323 236.844Z" fill="#768BFF"/>
<path d="M193.761 180.569C188.256 182.575 181.895 181.964 176.715 178.368L119.508 138.646C111.043 132.768 108.946 121.139 114.823 112.672C120.7 104.208 132.328 102.105 140.795 107.985L198.002 147.707C206.468 153.586 208.566 165.214 202.687 173.681C200.406 176.967 197.255 179.297 193.761 180.569Z" fill="#2E5EF4"/>
<path d="M191.797 211.92L169.173 208.588L166.065 229.687L188.689 233.019L191.797 211.92Z" fill="#212E55"/>
<path d="M198.909 212.948L162.005 207.511L168.933 160.451L205.837 165.888L198.909 212.948Z" fill="#2E5EF4"/>
<path d="M170.728 61.7075C170.212 68.0222 164.675 72.723 158.361 72.2078C152.046 71.6926 147.345 66.1555 147.86 59.8409C148.376 53.5262 153.913 48.8254 160.227 49.3406C166.542 49.8558 171.243 55.3929 170.728 61.7075Z" fill="#212E55"/>
<path d="M153.738 56.8617C153.738 56.8617 154.885 59.8793 154.483 65.9785C154.083 72.0766 150.424 71.0302 147.484 64.4521C145.916 60.9417 144.678 53.8899 151.784 49.6915C157.302 46.4318 168.426 47.8441 170.498 52.3507C173.025 57.8462 171.337 56.7998 153.738 56.8617Z" fill="#2E5EF4"/>
<path d="M156.635 63.5081C156.476 65.4505 154.774 66.8969 152.831 66.7379C150.889 66.579 149.442 64.8766 149.601 62.9342C149.759 60.9918 151.463 59.5454 153.405 59.7043C155.347 59.8622 156.794 61.5657 156.635 63.5081Z" fill="#212E55"/>
<path d="M161.413 222.25V243.289H209.047C210.56 243.289 211.618 241.746 211.024 240.354C209.689 237.22 206.239 232.398 197.406 230.108C197.406 230.108 190.562 227.826 190.056 222.25H161.413Z" fill="#52C4C0"/>
<path d="M220.002 126.293C218.364 126.293 216.725 125.668 215.475 124.418C213.474 122.416 210.813 121.314 207.981 121.314H193.389C189.854 121.314 186.989 118.449 186.989 114.914C186.989 111.38 189.854 108.514 193.389 108.514H207.981C214.233 108.514 220.109 110.948 224.527 115.369C227.026 117.869 227.026 121.92 224.526 124.419C223.276 125.668 221.639 126.293 220.002 126.293Z" fill="#212E55"/>
<path d="M115.038 153.961H81.4571C81.3148 153.961 81.1992 153.781 81.1992 153.561C81.1992 153.34 81.3148 153.161 81.4571 153.161H115.038C115.181 153.161 115.296 153.34 115.296 153.561C115.296 153.781 115.181 153.961 115.038 153.961Z" fill="#212E55"/>
<path d="M173.632 268.797H105.5C105.391 268.797 105.303 268.618 105.303 268.397C105.303 268.176 105.391 267.997 105.5 267.997H173.632C173.741 267.997 173.829 268.176 173.829 268.397C173.829 268.618 173.741 268.797 173.632 268.797Z" fill="#212E55"/>
<path d="M113.033 147.215H45.6668C45.4871 147.215 45.3413 147.036 45.3413 146.815C45.3413 146.594 45.4871 146.415 45.6668 146.415H113.033C113.213 146.415 113.359 146.594 113.359 146.815C113.359 147.036 113.213 147.215 113.033 147.215Z" fill="#212E55"/>
<path d="M114.666 97.6768H28.4592C28.268 97.6768 28.1128 97.4976 28.1128 97.2768C28.1128 97.056 28.268 96.8768 28.4592 96.8768H114.666C114.857 96.8768 115.012 97.056 115.012 97.2768C115.012 97.4976 114.857 97.6768 114.666 97.6768Z" fill="#212E55"/>
</g>
<defs>
<clipPath id="clip0_100_524">
<rect width="320" height="320" fill="white"/>
</clipPath>
</defs>
</svg>
