<svg width="25" height="25" viewBox="0 0 25 25" fill="none" xmlns="http://www.w3.org/2000/svg">
<g clip-path="url(#clip0_100_608)">
<path d="M12.069 5.48516C13.9776 5.48516 15.776 6.33125 17.094 7.65391V7.65781C17.094 7.02266 17.5213 6.54219 18.112 6.54219H18.262C19.194 6.54219 19.3807 7.42109 19.3807 7.69844L19.3846 17.5695C19.3198 18.2164 20.0526 18.5508 20.4596 18.1352C22.0417 16.5078 23.9377 9.76094 19.4745 5.85469C15.312 2.20859 9.72525 2.81094 6.75494 4.85781C3.59791 7.03906 1.57994 11.857 3.54009 16.3852C5.68072 21.3219 11.8002 22.7945 15.4424 21.3258C17.2862 20.5813 18.1362 23.0703 16.2198 23.8852C13.3315 25.1172 5.28228 24.9914 1.52291 18.4813C-1.01694 14.0836 -0.882563 6.34766 5.8565 2.33984C11.0073 -0.728125 17.8034 0.121875 21.9002 4.39922C26.1815 8.875 25.9338 17.2492 21.7542 20.5047C19.8612 21.9852 17.0502 20.5453 17.0706 18.3883L17.0495 17.6852C15.7315 18.9906 13.9776 19.7563 12.069 19.7563C8.29322 19.7563 4.969 16.4313 4.969 12.6594C4.969 8.84688 8.29322 5.48672 12.069 5.48672V5.48516ZM16.8182 12.3867C16.6752 9.62344 14.6245 7.95938 12.1463 7.95938H12.0526C9.19634 7.95938 7.60962 10.2094 7.60962 12.7602C7.60962 15.6203 9.52603 17.4266 12.0409 17.4266C14.8479 17.4266 16.6909 15.3727 16.8252 12.943L16.8182 12.3867Z" fill="#979797"/>
</g>
<defs>
<clipPath id="clip0_100_608">
<rect width="25" height="25" fill="white"/>
</clipPath>
</defs>
</svg>
