<svg width="300" height="300" viewBox="0 0 300 300" fill="none" xmlns="http://www.w3.org/2000/svg">
<g clip-path="url(#clip0_111_846)">
<path d="M105.778 213.078C102.511 212.927 99.7307 210.704 98.8345 207.598L96.5137 207.49L96.739 202.603L99.0599 202.71C100.239 199.7 103.211 197.741 106.479 197.892C109.746 198.043 112.527 200.268 113.423 203.373L115.745 203.48L115.52 208.368L113.198 208.261C112.019 211.272 109.045 213.229 105.778 213.078ZM105.916 210.109C104.146 210.027 102.604 208.966 101.891 207.339L101.427 206.279L110.738 206.709L110.178 207.721C109.318 209.276 107.685 210.19 105.916 210.109ZM110.831 204.691L101.52 204.261L102.08 203.25C102.94 201.695 104.572 200.779 106.343 200.86C108.112 200.942 109.654 202.004 110.367 203.632L110.831 204.691Z" fill="#FDF4F0"/>
<path d="M112.857 204.065C112.226 201.07 109.646 198.757 106.446 198.61C103.247 198.462 100.465 200.528 99.5612 203.451L97.4238 203.352L97.2646 206.806L99.4016 206.904C100.032 209.899 102.612 212.213 105.811 212.36C109.012 212.508 111.794 210.443 112.697 207.518L114.835 207.617L114.994 204.164L112.857 204.065ZM106.31 201.579C107.844 201.65 109.117 202.603 109.697 203.92L102.721 203.598C103.419 202.34 104.776 201.508 106.31 201.579ZM105.949 209.392C104.415 209.321 103.141 208.367 102.562 207.051L109.537 207.372C108.839 208.63 107.484 209.462 105.949 209.392Z" fill="#946B97"/>
<path d="M86.8158 219.236C85.9134 216.965 84.7546 215.717 83.2762 214.878L77.613 217.571C79.6741 223.137 84.8266 242.014 71.6625 266.561C70.8177 268.137 69.8534 269.654 68.7728 271.111C68.6961 271.236 68.6074 271.355 68.5064 271.466C67.0528 273.38 65.3952 275.189 63.5436 276.886C63.4059 277.544 63.365 278.293 63.4126 279.138L89.0656 278.579L82.5176 223.102C82.3637 221.803 83.2933 220.624 84.5936 220.471C85.8776 220.307 87.0716 221.247 87.225 222.547L93.8269 278.476L99.8074 278.346C99.8059 278.336 99.804 278.326 99.8031 278.316C97.7691 259.585 90.2172 227.796 86.8158 219.236Z" fill="#DBDBDB"/>
<path d="M72.461 210.826C72.4591 210.824 72.4567 210.822 72.4548 210.821C64.2816 206.551 53.3197 197.14 40.6588 184.999L34.1504 193.537L35.8818 195L38.0554 191.899C38.4266 191.37 38.9969 191.015 39.6349 190.917C40.2815 190.818 40.9252 190.984 41.4373 191.378L47.2277 195.81C48.2674 196.606 48.4651 198.094 47.6694 199.133C46.8737 200.173 45.3858 200.37 44.3466 199.575L40.5183 196.644L37.1359 201.468L63.3821 219.088L76.8349 212.691C75.3721 212.24 73.898 211.689 72.461 210.826Z" fill="#DBDBDB"/>
<path d="M67.4852 264.32C70.9366 257.883 73.0049 251.882 74.1846 246.549L56.7334 251.752L66.6942 265.711C66.9682 265.256 67.2312 264.793 67.4852 264.32Z" fill="#DBDBDB"/>
<path d="M178.376 233.192C175.707 234.51 172.91 235.97 170.474 237.404C165.181 240.52 160.626 241.965 158.061 242.598L159.428 260.527L182.688 255.392L178.376 233.192Z" fill="#DBDBDB"/>
<path d="M155.227 238.348C155.277 238.341 160.927 237.523 168.069 233.318C170.766 231.731 173.834 230.137 176.708 228.726L174.894 224.522C172.297 225.697 169.787 226.889 167.605 228.019C162.861 230.474 152.559 231.482 146.895 231.862C147.409 236.937 147.887 242.159 148.283 247.145C151.091 282.469 148.712 285.588 147.433 287.264C146.975 287.866 146.382 288.641 142.445 290.041C143.76 290.478 144.95 290.943 146.038 291.431C146.211 290.729 146.482 290.003 146.899 289.274C148.482 286.508 151.61 284.328 156.361 282.681L153.175 240.878C153.08 239.624 153.98 238.514 155.227 238.348Z" fill="#DBDBDB"/>
<path d="M137.489 223.18L127.04 225.597C126.939 225.62 126.838 225.636 126.736 225.647C126.177 225.701 125.613 225.555 125.147 225.23C124.598 224.844 124.236 224.245 124.154 223.578L123.06 214.719C122.899 213.42 123.822 212.237 125.122 212.077C126.413 211.932 127.604 212.84 127.765 214.138L128.536 220.385L136.923 218.445C136.164 212.33 135.453 207.534 134.925 204.912C134.206 201.345 132.598 197.76 130.599 194.391C115.629 202.593 102.612 209.022 92.3242 211.867C93.1928 213.046 93.9809 214.445 94.6474 216.123C97.6677 223.723 102.783 244.581 105.934 262.296L133.127 259.406C133.134 259.406 133.141 259.406 133.148 259.405C134.441 259.279 135.597 260.218 135.735 261.513C135.873 262.815 134.93 263.982 133.628 264.121L106.732 266.979C107.343 270.737 107.841 274.273 108.181 277.405C108.182 277.417 108.185 277.429 108.187 277.442L141.154 273.116C141.138 267.39 140.781 258.761 139.758 246.279C139.082 238.026 138.279 230.027 137.489 223.18Z" fill="#DBDBDB"/>
<path d="M113.884 285.29C114.325 285.54 115.365 285.97 117.431 286.134C118.125 286.146 118.831 286.168 119.543 286.197C120.444 286.187 121.465 286.136 122.637 286.021C129.947 285.308 137.811 282.821 140.718 281.684C140.863 280.893 140.989 279.663 141.068 277.909L109.963 281.99C110.902 283.244 112.203 284.341 113.884 285.29Z" fill="#DBDBDB"/>
<path d="M68.8892 161.016L63.1121 155.548L54.8994 166.321L59.815 171.5L68.8892 161.016Z" fill="#DBDBDB"/>
<path d="M61.1357 147.15L64.0793 149.936L66.8037 146.363L63.7906 143.907L61.1357 147.15Z" fill="#DBDBDB"/>
<path d="M45.6368 139.008L37.3555 147.834L41.5969 152.304L42.5336 149.007C42.6113 148.733 42.7514 148.48 42.9434 148.27L48.6637 141.985L47.7775 141.034L45.6368 139.008Z" fill="#DBDBDB"/>
<path d="M45.9615 150.431L44.5464 155.412L53.0631 164.385L61.1886 153.727L51.3969 144.46L45.9615 150.431Z" fill="#DBDBDB"/>
<path d="M33.2811 165.945L38.2043 160.971L37.6778 160.416L32.3096 164.97C32.6321 165.294 32.9561 165.619 33.2811 165.945Z" fill="#DBDBDB"/>
<path d="M31.8886 200.697L34.3643 197.165L31.4941 194.74C30.9581 194.287 30.8714 193.493 31.2964 192.936L38.7491 183.16C36.6608 181.14 34.5301 179.052 32.3589 176.904L18.25 195.704L29.8484 203.606L31.8453 200.757C31.8596 200.737 31.8743 200.717 31.8886 200.697Z" fill="#DBDBDB"/>
<path d="M20.6156 217.853L25.3735 218.592L27.7791 207.934L18.9375 201.909L20.6156 217.853Z" fill="#DBDBDB"/>
<path d="M32.6551 207.86L30.0684 219.321L54.8075 223.165L58.4038 221.455L34.4141 205.351L32.6551 207.86Z" fill="#DBDBDB"/>
<path d="M183.592 260.047L159.791 265.301L160.269 271.575L184.706 265.786L183.592 260.047Z" fill="#DBDBDB"/>
<path d="M253.083 87.452L256.04 86.4852C257.469 85.9044 259.666 84.7943 262.436 83.2834L258.155 62.8448L249.143 65.42L253.083 87.452Z" fill="#DBDBDB"/>
<path d="M259.717 148.484L263.477 165.211L285.175 164.3C283.566 159.557 280.405 150.065 277.877 141.379L259.634 148.202C259.667 148.294 259.695 148.389 259.717 148.484Z" fill="#DBDBDB"/>
<path d="M271.726 223.454L294.224 222.865L294.005 189.422L278.049 187.741C278.112 205.414 274.922 216.08 271.726 223.454Z" fill="#DBDBDB"/>
<path d="M249.046 48.3266C249.01 49.1013 248.492 49.7717 247.752 50.0018L242.917 51.5051L248.098 61.8847L257.396 59.227L253.603 41.1149L249.296 42.8912L249.046 48.3266Z" fill="#DBDBDB"/>
<path d="M242.101 63.5976L244.491 62.9148L239.348 52.6143L232.137 54.856C232.618 58.4861 233.113 62.2602 233.587 65.9313L242.101 63.5976Z" fill="#DBDBDB"/>
<path d="M236.604 30.3251L232.07 27.7079L229.232 33.2891C229.511 35.3226 230.496 42.5291 231.645 51.1477L237.68 49.2714L235.982 45.8719C235.928 45.7623 235.885 45.6475 235.853 45.5293L233.063 35.2021C232.892 34.5679 233.07 33.8909 233.533 33.424L236.604 30.3251Z" fill="#DBDBDB"/>
<path d="M263.028 119.804C258.333 123.166 253.888 126.293 249.669 129.208L257.43 143.964L276.587 136.8C275.287 132.006 274.337 127.827 274.171 125.367C273.823 120.221 272.736 116.564 271.791 114.249C268.586 116.079 265.64 117.933 263.028 119.804Z" fill="#DBDBDB"/>
<path d="M186.766 229.265C185.714 229.734 184.343 230.352 182.794 231.075L187.318 254.369L196.384 252.368L186.766 229.265Z" fill="#DBDBDB"/>
<path d="M160.633 276.36L161.014 281.358C162.407 281.035 163.887 280.738 165.478 280.475C171.271 279.518 178.923 277.743 186.647 275.774L185.611 270.443L160.633 276.36Z" fill="#DBDBDB"/>
<path d="M273.306 187.241L251.27 184.92L252.986 258.713L261.207 256.78L261.132 255.244C260.985 253.867 259.428 238.237 263.016 230.561C263.452 229.627 263.952 228.643 264.481 227.601C264.653 227.262 264.829 226.916 265.007 226.561L263.09 225.556L258.356 230.079C257.412 230.983 255.91 230.95 255.004 230.003C254.1 229.057 254.134 227.556 255.081 226.652L261.046 220.952C261.781 220.248 262.883 220.093 263.785 220.566L267.055 222.282C270.195 215.22 273.431 204.887 273.306 187.241Z" fill="#DBDBDB"/>
<path d="M198.233 256.815L188.222 259.025L189.323 264.693L200.418 262.064L198.233 256.815Z" fill="#DBDBDB"/>
<path d="M231.518 246.032C230.248 246.343 228.963 245.565 228.651 244.293C228.339 243.022 229.118 241.739 230.39 241.427L247.744 237.174L246.517 184.419L240.186 183.752C240.018 184.122 239.758 184.455 239.408 184.703L199.726 212.936C202.375 218.851 204.414 223.596 205.609 226.703C210.094 238.36 216.472 251.582 222.1 263.248C222.499 264.077 222.893 264.894 223.282 265.699L248.27 259.822L247.856 242.027L231.518 246.032Z" fill="#DBDBDB"/>
<path d="M197.744 229.729C196.651 226.886 194.802 222.574 192.396 217.191C189.443 218.352 184.43 220.361 179.231 222.608L180.989 226.682C184.384 225.104 186.885 224.037 187.099 223.945C187.681 223.699 188.337 223.694 188.922 223.932C189.507 224.171 189.972 224.633 190.215 225.216L205.866 262.817C206.134 263.458 206.106 264.185 205.79 264.804C205.473 265.424 204.901 265.873 204.225 266.034L190.228 269.349L191.244 274.583C200.707 272.091 209.74 269.491 215.009 267.945C214.843 267.601 214.676 267.256 214.509 266.91C208.811 255.097 202.353 241.71 197.744 229.729Z" fill="#DBDBDB"/>
<path d="M143.151 203.089C143.162 203.142 143.176 203.195 143.187 203.248C144.084 207.702 145.292 216.835 146.401 227.14C152.319 226.736 161.71 225.731 165.425 223.808C173.327 219.718 185.016 214.997 190.447 212.861C188.956 209.571 187.308 205.98 185.535 202.153L167.395 211.605C167.123 211.747 166.828 211.833 166.529 211.862C166.168 211.897 165.798 211.85 165.452 211.717C164.818 211.474 164.319 210.97 164.081 210.335L160.742 201.433C160.283 200.208 160.904 198.842 162.13 198.382C163.355 197.921 164.721 198.543 165.18 199.769L167.579 206.164L183.536 197.849C182.131 194.835 180.662 191.7 179.145 188.474L143.151 203.089Z" fill="#DBDBDB"/>
<path d="M171.816 172.979C171.69 173.03 171.569 173.082 171.445 173.133L171.899 173.154C171.871 173.095 171.844 173.037 171.816 172.979Z" fill="#DBDBDB"/>
<path d="M72.5625 33.5583L72.1504 47.3694C91.3202 46.4589 112.842 45.9057 123.769 47.2212C124.075 44.3892 124.514 41.3808 125.119 38.2009C125.394 36.7558 125.658 35.3975 125.909 34.1139C127.803 24.3989 128.754 19.5223 126.963 13.8387C126.134 11.2072 124.722 8.28841 122.466 4.51581H85.0476C82.3294 4.51581 79.6432 4.65351 76.9955 4.92175L72.8479 27.3701L72.5625 33.5583ZM95.3372 16.3201L96.7985 16.3296L96.8 15.4829C96.8023 14.3266 97.5018 13.3913 99.5944 13.3951C101.687 13.3994 102.522 14.337 102.52 15.4934L102.518 16.3672L103.742 16.3749C103.742 16.3749 104.395 19.3241 104.395 21.9261C104.395 26.1823 94.3262 26.1018 94.5673 21.7917C94.6997 19.4223 95.3372 16.3201 95.3372 16.3201Z" fill="#DBDBDB"/>
<path d="M168.187 165.36C165.521 159.771 162.813 154.119 160.123 148.521L147.936 154.037L155.902 170.791C157.268 170.125 158.62 169.496 159.975 168.884C160.654 168.439 161.406 168.105 162.202 167.895C164.158 167.041 166.137 166.211 168.187 165.36Z" fill="#DBDBDB"/>
<path d="M88.2723 103.566C86.6471 103.542 82.1745 104.949 77.7368 106.873C79.2348 109.993 80.7704 112.996 82.3413 115.88L91.8781 112.267C90.3253 108.324 88.9526 104.962 88.2723 103.566Z" fill="#DBDBDB"/>
<path d="M101.822 15.492C101.824 14.723 100.988 14.0959 99.5925 14.0931C98.1974 14.0907 97.4989 14.7149 97.497 15.4839L97.4956 16.3343L101.82 16.3625L101.822 15.492Z" fill="#DBDBDB"/>
<path d="M143.82 9.56817C145.069 9.69015 149.283 10.0194 155.122 10.4601L156.616 4.51581H144.689L143.486 9.5434C143.598 9.5515 143.709 9.55769 143.82 9.56817Z" fill="#DBDBDB"/>
<path d="M139.641 9.77067L140.898 4.51581H132.115C133.374 6.93336 134.315 9.11173 134.984 11.1862C136.354 10.6088 137.945 10.0756 139.641 9.77067Z" fill="#DBDBDB"/>
<path d="M35.8887 168.553C38.5144 171.17 41.1964 173.815 43.886 176.423L47.8878 171.174L40.7433 163.646L35.8887 168.553Z" fill="#DBDBDB"/>
<path d="M24.9017 146.955L13.2733 134.703L6.93018 140.847C10.1668 143.12 13.1499 145.568 15.7718 148.214C16.9229 149.376 18.1169 150.585 19.3419 151.829L24.9017 146.955Z" fill="#DBDBDB"/>
<path d="M30.7261 63.4256C33.7006 63.9606 38.1016 64.6286 42.6066 64.875C43.6905 62.1325 46.4197 60.2481 49.5305 60.3915C51.9785 60.5049 54.0787 61.8447 55.2656 63.7901C55.591 63.7062 55.9136 63.6238 56.2309 63.5433C56.8536 60.6021 58.375 54.6078 59.1049 51.7628C47.728 52.416 38.7196 53.0612 35.8809 53.2699L34.5315 55.4501C33.2084 58.2784 31.9196 60.9694 30.7261 63.4256Z" fill="#DBDBDB"/>
<path d="M27.0061 149.172L26.7165 148.867L21.1929 153.709C21.483 154.004 21.7761 154.301 22.0696 154.6C24.1069 152.417 25.8503 150.476 27.0061 149.172Z" fill="#DBDBDB"/>
<path d="M14.2583 168.262C13.4764 168.947 12.6798 169.765 11.8765 170.678C13.7123 171.838 15.4794 172.948 16.6287 173.655C17.3562 174.103 17.9861 174.247 18.5602 174.096C19.608 173.818 20.3131 172.634 20.3198 172.622C20.5299 172.239 20.8691 171.943 21.2775 171.787L25.5813 170.142C23.4706 168.02 21.3313 165.858 19.1644 163.661C17.5168 165.288 15.8492 166.866 14.2583 168.262Z" fill="#DBDBDB"/>
<path d="M177.023 12.0843C177.265 9.68917 177.516 7.14917 177.774 4.51627H160.417L158.854 10.7402C164.225 11.1419 170.535 11.6079 177.023 12.0843Z" fill="#DBDBDB"/>
<path d="M69.4546 145.126C70.0053 145.575 70.1011 146.38 69.6704 146.945L66.0026 151.756L73.7756 159.113C73.7894 159.126 73.8027 159.138 73.8161 159.151L77.1174 162.276L95.4878 143.84C93.7549 141.691 91.9043 139.312 89.9299 136.669C86.8296 132.519 83.8183 127.949 80.9153 122.992L65.4585 141.87L69.4546 145.126Z" fill="#DBDBDB"/>
<path d="M29.9192 152.242C28.7257 153.586 27.0133 155.488 25.0312 157.61C26.3067 158.905 27.6194 160.237 28.9616 161.595L34.4089 156.973L29.9192 152.242Z" fill="#DBDBDB"/>
<path d="M76.2019 198.126C75.927 199.068 76.6355 201.714 77.7409 204.049C78.0868 204.199 78.4213 204.332 78.7453 204.45C79.0716 204.56 79.4104 204.666 79.7592 204.769C83.0038 205.611 88.0386 204.627 94.0391 202.529L87.4654 190.992C81.9709 194.079 77.5703 196.84 76.2019 198.126Z" fill="#DBDBDB"/>
<path d="M236.063 80.5123L247.551 77.4668L245.579 66.4387L243.096 67.1477L234.062 69.6243C234.315 71.6159 234.558 73.5499 234.785 75.379C235.118 78.0724 235.671 79.6623 236.063 80.5123Z" fill="#DBDBDB"/>
<path d="M112.385 155.654C112.603 155.876 112.815 156.092 113.023 156.303C117.508 160.87 119.979 163.386 119.796 167.366L119.695 169.551C120.672 169.826 121.503 170.302 122.179 170.978L122.649 171.445C124.989 173.773 129.204 177.973 133.256 183.294C135.566 181.999 137.801 180.734 139.928 179.53L121.589 149.512L112.385 155.654Z" fill="#DBDBDB"/>
<path d="M125.778 187.44C122.395 183.138 118.951 179.658 117.02 177.733C112.06 178.338 99.6822 184.281 89.7681 189.714L96.5466 201.611C105.371 198.238 115.891 192.844 125.778 187.44Z" fill="#DBDBDB"/>
<path d="M69.1137 193.539L56.3365 180.077C56.1531 179.988 55.9758 179.883 55.8148 179.744C55.5294 179.497 55.3259 179.194 55.1892 178.868L49.7238 173.109L45.793 178.265C53.5578 185.729 61.2845 192.744 67.792 197.721C67.9016 196.25 68.298 194.818 69.1137 193.539Z" fill="#DBDBDB"/>
<path d="M102.704 145.122C105.088 147.921 107.195 150.234 109.041 152.187L119.116 145.464L116.097 140.523L102.704 145.122Z" fill="#DBDBDB"/>
<path d="M218.091 15.0717L219.072 4.72924C218.89 4.6754 218.695 4.62156 218.49 4.56868C217.582 4.53771 216.671 4.51627 215.755 4.51627H186.241C185.963 7.36501 185.692 10.1142 185.431 12.7004C200.094 13.7719 213.937 14.772 218.091 15.0717Z" fill="#DBDBDB"/>
<path d="M48.8746 74.5738C45.4332 74.4151 42.6797 71.8303 42.1847 68.5485C36.9841 68.2564 32.0299 67.4426 29.0382 66.8708C28.7633 67.4274 28.4979 67.9629 28.2402 68.4813L28.2173 68.9816C29.1121 69.1736 30.3166 69.4761 31.9608 69.9278C36.0974 71.0646 39.7109 72.4487 42.7016 74.0425C42.917 74.1573 43.1352 74.2745 43.3534 74.3941L59.3152 75.1307C58.0626 72.4907 56.861 69.6167 56.3112 67.3282C56.3045 67.3297 56.2974 67.3316 56.2907 67.3335C56.294 67.4917 56.3002 67.6494 56.2926 67.8099C56.112 71.7264 52.7911 74.7543 48.8746 74.5738Z" fill="#DBDBDB"/>
<path d="M132.861 117.251L130.68 117.742L145.9 149.756L158.069 144.248C144.256 115.537 131.338 89.0867 127.497 81.2327L134.657 114.439C134.931 115.71 134.13 116.965 132.861 117.251Z" fill="#DBDBDB"/>
<path d="M275.804 182.208C275.877 182.213 275.95 182.219 276.02 182.231L277.289 182.364L275.659 169.444L264.535 169.912L267.094 181.29L275.804 182.208Z" fill="#DBDBDB"/>
<path d="M144.737 186.492C142.45 187.787 140.197 189.057 137.982 190.297C139.863 193.51 141.471 196.948 142.508 200.507L178.022 186.088C176.579 183.028 175.097 179.892 173.587 176.709L173.521 178.127L171.2 178.02C170.021 181.03 167.047 182.988 163.78 182.837C161.248 182.72 159.013 181.356 157.716 179.304C156.491 179.928 155.256 180.577 153.99 181.28C151.081 182.898 147.999 184.644 144.737 186.492Z" fill="#DBDBDB"/>
<path d="M233.465 177.747L228.871 166.294L214.228 175.721L233.465 177.747Z" fill="#DBDBDB"/>
<path d="M204.476 178.557L197.72 161.232C190.746 164.822 184.888 167.464 179.607 169.719C183.647 178.22 187.523 186.441 191.021 193.949L215.143 181.38C215.333 181.281 215.531 181.22 215.732 181.176L206.653 180.219C205.674 180.116 204.834 179.475 204.476 178.557Z" fill="#DBDBDB"/>
<path d="M207.734 196.755C206.598 197.406 205.15 197.013 204.499 195.877L202.909 193.1L193.02 198.253C194.71 201.902 196.291 205.346 197.738 208.532L233.551 183.053L217.213 181.332C217.68 181.543 218.086 181.896 218.34 182.386C218.945 183.547 218.494 184.979 217.334 185.584L207.116 190.908L208.613 193.521C209.263 194.657 208.87 196.105 207.734 196.755Z" fill="#DBDBDB"/>
<path d="M78.8445 167.257C77.9369 168.168 76.4699 168.19 75.536 167.307L72.3351 164.277L63.0942 174.954L75.6837 188.22C86.0691 181.488 105.998 171.303 114.949 169.545L115.06 167.148C115.144 165.32 113.825 163.885 109.64 159.624C106.88 156.813 103.207 153.073 98.5175 147.515L78.8445 167.257Z" fill="#DBDBDB"/>
<path d="M140.333 40.5789C140.287 41.5628 140.043 42.4905 139.641 43.3257L146.869 43.3109L153.95 15.1256C148.5 14.713 144.583 14.4061 143.359 14.2865C140.764 14.0321 138.056 14.9536 136.076 15.8822C136.784 20.8998 136.043 25.9755 134.647 33.3025C138.025 33.9819 140.496 37.0317 140.333 40.5789Z" fill="#DBDBDB"/>
<path d="M236.899 35.2655L239.364 44.3901L241.248 48.1622L245.422 46.8649L245.667 41.549C245.701 40.8338 246.144 40.2025 246.806 39.9295L250.557 38.3829L239.904 32.2314L236.899 35.2655Z" fill="#DBDBDB"/>
<path d="M35.8391 242.851C35.0815 241.784 35.3321 240.304 36.3989 239.546C37.4657 238.788 38.946 239.038 39.7036 240.106L62.1238 271.671C62.6989 271.069 63.2559 270.444 63.7895 269.801L50.9866 251.86C50.9599 251.825 50.9347 251.789 50.9099 251.752L47.9697 247.633C47.2097 246.568 47.457 245.087 48.5224 244.327C49.5887 243.567 51.0681 243.814 51.8285 244.88L53.8225 247.674L75.1021 241.328C75.4828 238.399 75.6009 235.742 75.5652 233.41L69.6071 233.134C68.2992 233.074 67.2882 231.965 67.3482 230.658C67.4092 229.35 68.516 228.339 69.8253 228.399L75.266 228.65C74.8019 224.49 73.9114 221.383 73.3001 219.621L56.2115 227.747C55.9937 227.854 55.7588 227.929 55.5135 227.964C55.2643 228.001 55.0137 227.998 54.7711 227.957L6.2915 220.424C7.4998 235.979 13.2154 250.267 22.1304 261.991L18.1582 252.866C17.636 251.667 18.1849 250.27 19.3855 249.747C20.5833 249.224 21.9822 249.774 22.5044 250.975L29.7714 267.666C30.0844 268.387 30.021 269.215 29.6013 269.879L29.3645 270.253C34.1619 275.022 39.5688 279.176 45.4573 282.594C50.1752 280.625 54.6987 278.116 58.6128 274.914L35.8391 242.851Z" fill="#DBDBDB"/>
<path d="M184.757 106L194.33 104.953C189.033 93.4558 187.174 85.104 186.829 83.4025C186.569 82.6083 186.29 81.7726 186 80.9064L184.442 84.2635C182.592 88.251 183.943 100.601 184.757 106Z" fill="#DBDBDB"/>
<path d="M9.78667 154.146C8.62459 152.974 7.37341 151.841 6.0498 150.747V163.479L12.9937 157.392C11.8959 156.279 10.8244 155.193 9.78667 154.146Z" fill="#DBDBDB"/>
<path d="M111.97 71.6145L124.365 71.5249C123.965 69.3546 123.6 66.7093 123.385 63.5995L116.477 64.2308C116.515 64.5872 116.535 64.9479 116.518 65.3166C116.384 68.2216 114.521 70.6339 111.97 71.6145Z" fill="#DBDBDB"/>
<path d="M11.48 165.094C12.9999 163.761 14.6084 162.236 16.206 160.656C15.7495 160.192 15.2936 159.728 14.8447 159.273L6.0498 166.981C6.67301 167.378 7.43725 167.864 8.27868 168.399C9.34451 167.146 10.4156 166.028 11.48 165.094Z" fill="#DBDBDB"/>
<path d="M28.9641 173.53C28.7859 173.352 28.6096 173.178 28.431 173L23.1499 175.018C22.5634 175.828 21.3527 177.17 19.5036 177.66C18.421 177.948 16.7053 178.03 14.697 176.795C13.4616 176.036 11.5229 174.816 9.55034 173.569C8.37444 175.151 7.19997 176.904 6.0498 178.753V186.443L15.6671 191.246L28.9641 173.53Z" fill="#DBDBDB"/>
<path d="M175.986 43.25C175.549 40.01 175.275 36.7701 175.216 33.5793L154.601 30.5552L150.785 43.3024L175.986 43.25Z" fill="#DBDBDB"/>
<path d="M175.594 25.3551C175.87 23.0434 176.19 20.1312 176.537 16.8032C169.769 16.3062 163.194 15.8203 157.681 15.4072L154.804 26.8584L175.251 29.8572C175.31 28.3392 175.418 26.835 175.594 25.3551Z" fill="#DBDBDB"/>
<path d="M134.006 75.3604C134.782 76.9456 138.123 83.768 142.976 93.7298C148.837 94.059 154.836 94.1686 156.857 93.8374C157.199 91.5109 157.391 84.0624 157.376 77.6936C157.375 77.2019 157.569 76.7302 157.918 76.3833C158.266 76.036 158.736 75.8426 159.23 75.8454L184.356 75.9998C183.721 74.0925 183.06 72.0828 182.397 69.9907L133.235 72.6865C133.592 74.1521 133.897 75.0583 134.006 75.3604Z" fill="#DBDBDB"/>
<path d="M58.9523 281.711C58.8947 281.364 58.8456 281.024 58.8046 280.691C56.3618 282.414 53.6717 283.985 50.7534 285.406C54.0615 287.003 57.4996 288.372 61.0449 289.502C60.1211 286.761 59.4345 284.352 59.0405 282.214C58.9938 282.053 58.9637 281.885 58.9523 281.711Z" fill="#DBDBDB"/>
<path d="M132.251 47.2789C131.139 56.8891 131.712 64.2499 132.499 69.034L181.275 66.3596C179.44 60.2776 177.696 53.6525 176.551 46.9359L135.355 47.0221C134.586 47.2622 133.766 47.3823 132.915 47.3432C132.691 47.3327 132.47 47.3094 132.251 47.2789ZM147.56 55.4606L150.006 55.5736L150.091 53.7392L151.925 53.8235L151.84 55.6584L154.287 55.7713L154.202 57.6057L151.756 57.4927L151.586 61.1619L149.752 61.0771L149.921 57.4079L147.475 57.2955L147.56 55.4606Z" fill="#DBDBDB"/>
<path d="M64.2734 283.86C64.8276 285.933 65.628 288.328 66.6195 291.053C72.5324 292.466 78.7015 293.219 85.047 293.219H90.7936L89.6239 283.309L64.2734 283.86Z" fill="#DBDBDB"/>
<path d="M16.2312 201.346C16.1893 200.947 16.3346 200.577 16.5914 200.31L13.5297 198.224C12.9947 197.86 12.6326 197.292 12.5263 196.653C12.4205 196.015 12.5806 195.361 12.9689 194.843L14.061 193.388L6.0498 189.386V214.221C6.0498 214.68 6.05981 215.136 6.06743 215.592L17.9236 217.435L16.2312 201.346Z" fill="#DBDBDB"/>
<path d="M16.3599 125.722C16.3913 125.753 16.4256 125.782 16.4561 125.814L18.2162 127.668L17.025 105.244L8.94714 101.533C7.99851 103.059 7.02891 104.611 6.04932 106.172V114.969L16.2069 123.911C16.7382 124.378 16.7987 125.176 16.3599 125.722Z" fill="#DBDBDB"/>
<path d="M38.3723 24.4813C38.9926 22.6593 39.5839 20.6501 40.1604 18.5056C24.9185 29.0501 13.5659 44.8142 8.687 63.2159C10.4885 64.1608 11.8793 65.8074 12.4639 67.8342L14.7861 67.941L14.5603 72.8294L12.2385 72.7222C11.2384 75.276 8.94524 77.0666 6.2785 77.4601C6.12699 79.4584 6.0498 81.4767 6.0498 83.5131V90.1716C11.8421 80.741 16.2279 73.385 16.8016 72.4225C17.805 70.4829 32.2622 42.4328 38.3723 24.4813Z" fill="#DBDBDB"/>
<path d="M12.927 124.532L6.0498 118.478V129.967L10.4675 125.688C11.1403 125.036 12.007 124.636 12.927 124.532Z" fill="#DBDBDB"/>
<path d="M29.9213 117.779C29.8655 117.728 29.4896 117.491 28.9521 117.518C28.9264 117.519 28.9002 117.521 28.8745 117.524C28.3375 117.576 27.8148 117.89 27.3188 118.46C27.0973 118.714 26.8238 119.134 27.0068 119.848C27.2864 120.94 28.4319 122.079 29.7292 122.556C29.7879 122.578 29.845 122.599 29.9036 122.621C30.8718 121.618 31.3807 120.712 31.3783 119.992C31.3764 119.275 30.8465 118.697 30.2562 118.119C30.1228 117.989 30.0085 117.875 29.9213 117.779Z" fill="#DBDBDB"/>
<path d="M25.0473 74.8186C26.0441 74.3608 27.159 74.123 28.3301 74.1769C32.2466 74.3579 35.2745 77.6788 35.0939 81.5953C35.0001 83.6274 34.0567 85.4151 32.6273 86.6448L45.1005 94.22C45.971 94.7484 46.2483 95.8824 45.7199 96.7529C45.4059 97.2689 44.8794 97.5762 44.321 97.6305C43.9379 97.6682 43.5411 97.5862 43.1866 97.3713L28.3416 88.3563C28.1214 88.3663 27.9004 88.3691 27.6759 88.3586C24.9358 88.2324 22.635 86.5662 21.5592 84.2373L20.0822 83.3396C19.0501 85.0511 17.8547 87.026 16.5344 89.1944L41.6862 105.453L45.9929 96.9578C46.4532 96.0496 47.5628 95.6866 48.4705 96.1473C49.3786 96.6076 49.7422 97.7172 49.2819 98.6249L44.049 108.946C43.8126 109.412 43.39 109.756 42.8859 109.893C42.7863 109.919 42.6853 109.938 42.5839 109.947C42.1722 109.988 41.7562 109.888 41.4041 109.661L14.6134 92.3428C13.2736 94.5335 11.8409 96.8634 10.3467 99.2772L18.8491 103.184C18.87 103.193 18.8867 103.207 18.9067 103.218C18.9482 103.239 18.9882 103.262 19.0268 103.288C19.0621 103.312 19.0954 103.337 19.1283 103.363C19.1607 103.39 19.1921 103.418 19.2217 103.447C19.2531 103.478 19.2817 103.509 19.3093 103.543C19.336 103.575 19.3603 103.608 19.3841 103.643C19.408 103.678 19.4294 103.713 19.4499 103.75C19.4704 103.788 19.489 103.826 19.5061 103.866C19.5228 103.905 19.5371 103.944 19.5495 103.984C19.5623 104.024 19.5733 104.065 19.5823 104.107C19.5919 104.151 19.5985 104.196 19.6038 104.242C19.6062 104.265 19.6128 104.287 19.6143 104.31L21.0098 130.612L35.5394 145.921L43.7245 137.198L43.3414 136.836C42.9569 136.471 42.7292 136.008 42.6444 135.524L42.2027 135.049C41.5661 134.472 34.6942 128.312 28.4564 126.017C25.9907 125.11 24.0201 123.047 23.435 120.763C22.9933 119.039 23.3864 117.361 24.5399 116.038C26.1094 114.237 27.8189 113.841 28.9772 113.829C30.4018 113.813 31.8073 114.375 32.6459 115.295C32.6945 115.348 32.7602 115.411 32.836 115.485C33.5573 116.191 35.0587 117.661 35.0653 119.981C35.0701 121.383 34.5093 122.805 33.3954 124.223C39.282 127.359 44.4906 132.143 44.7522 132.385C44.786 132.416 44.8189 132.448 44.8499 132.482L45.1077 132.759C45.646 132.789 46.1783 132.993 46.6009 133.393L57.6838 143.883L78.4097 118.569C76.259 114.646 74.1735 110.505 72.1619 106.163C70.3866 102.332 68.8481 98.7311 67.5436 95.5046L59.3966 89.8271C53.7716 90.3622 41.5909 85.7138 39.0361 84.708C38.3038 84.4193 37.835 83.6979 37.8698 82.9108L38.1766 76.0036C38.1766 75.9898 38.1771 75.9769 38.1785 75.9636C32.9813 73.7295 27.5826 72.625 26.2875 72.3792C25.7954 73.3531 25.378 74.173 25.0473 74.8186Z" fill="#DBDBDB"/>
<path d="M102.353 65.5215L95.8417 66.1171L95.582 71.7345L106.975 71.6516C104.406 70.7068 102.561 68.3259 102.353 65.5215Z" fill="#DBDBDB"/>
<path d="M43.8388 78.9843C43.3752 78.6608 42.8554 78.3435 42.3179 78.0362L41.7776 78.0114L41.6123 81.7497C45.1024 83.0695 49.4062 84.4831 52.9863 85.3594L43.8388 78.9843Z" fill="#DBDBDB"/>
<path d="M90.8267 71.9956L90.8309 71.8632L91.8039 50.7932C91.811 50.6303 91.8353 50.4716 91.8739 50.3196C88.9332 50.3983 85.9425 50.4964 82.947 50.6093L79.8071 70.3757L82.5349 72.8847L90.8267 71.9956Z" fill="#DBDBDB"/>
<path d="M61.1416 86.3366L65.0929 89.1767C63.4334 84.6918 62.4686 81.6339 62.1984 80.7563C61.9073 80.2241 61.57 79.598 61.2079 78.9086L49.3955 78.363L60.3788 86.0173C60.6504 86.064 60.9115 86.1712 61.1416 86.3366Z" fill="#DBDBDB"/>
<path d="M76.7166 66.3301L79.1899 50.7585C76.8896 50.8542 74.5992 50.9571 72.3403 51.0648L73.1374 61.3206L76.7166 66.3301Z" fill="#DBDBDB"/>
<path d="M107.695 110.551C107.444 111.152 106.956 111.623 106.347 111.854L98.0342 115.004C99.0957 117.751 100.07 120.314 100.741 122.09L121.177 113.968C122.391 113.483 123.771 114.078 124.255 115.295C124.738 116.511 124.144 117.889 122.928 118.373L100.25 127.387C99.6584 127.622 98.9976 127.61 98.4148 127.352C97.8326 127.094 97.379 126.613 97.1551 126.016C96.1369 123.302 94.87 119.967 93.5998 116.684L84.6919 120.059C87.6016 125.07 90.6209 129.673 93.7274 133.831C95.7738 136.571 97.6854 139.022 99.4669 141.222L116.357 135.422C117.413 135.061 118.571 135.48 119.15 136.428L144.056 177.194C146.068 176.057 148.017 174.959 149.894 173.915C150.498 173.579 151.088 173.266 151.679 172.95L125.125 117.1C124.816 116.449 124.819 115.693 125.134 115.046C125.45 114.398 126.042 113.928 126.745 113.77L129.528 113.143L124.865 91.5209L121.205 91.9588L124.691 103.484C125.038 104.63 124.476 105.855 123.38 106.338L112.749 111.035C111.553 111.562 110.153 111.022 109.624 109.824C109.095 108.627 109.636 107.227 110.834 106.698L119.547 102.849L116.425 92.53L106.633 93.7012C105.677 93.816 104.705 93.3171 104.249 92.4424L97.3619 79.2111C96.7577 78.05 97.2089 76.6187 98.3701 76.0146C99.5307 75.4104 100.962 75.8607 101.568 77.0218L107.697 88.7998L117.798 87.5915C117.826 87.5882 117.853 87.5849 117.881 87.582L123.862 86.8668L121.444 75.6567C121.414 75.5148 121.402 75.3732 121.397 75.2336L95.446 75.4223L95.2559 80.6834L107.674 108.677C107.938 109.272 107.946 109.949 107.695 110.551Z" fill="#DBDBDB"/>
<path d="M68.6565 51.2459C67.1038 51.3245 65.5748 51.405 64.0721 51.486C63.8805 52.2264 62.3211 58.2584 61.3682 62.3092C65.0007 61.4869 67.7608 60.9685 69.3908 60.6859L68.6565 51.2459Z" fill="#DBDBDB"/>
<path d="M66.6634 79.1482C66.6953 79.2545 69.8004 89.5031 75.7285 102.571C89.5553 96.4475 91.4364 99.5697 92.0682 100.62C92.7691 101.783 94.5048 106.006 96.3115 110.587L102.325 108.309L90.7007 82.1061C90.555 81.7769 90.4863 81.419 90.4992 81.0588L90.6917 75.7187L82.0978 76.6402C81.5899 76.6907 81.0439 76.523 80.6532 76.1642L76.5814 72.4192C76.5685 72.4073 76.5595 72.3921 76.5466 72.3797C76.4823 72.3168 76.4218 72.2496 76.3665 72.1772C76.3532 72.1596 76.3379 72.1438 76.325 72.1262L70.67 64.2103C69.1077 64.4719 65.6348 65.097 60.8525 66.2129C61.4553 68.6762 64.0053 74.2074 66.47 78.6885C66.5505 78.8343 66.6153 78.9886 66.6634 79.1482Z" fill="#DBDBDB"/>
<path d="M109.754 57.8977C112.411 58.0202 114.655 59.5896 115.77 61.8071L123.256 61.1491C123.137 58.0969 123.169 54.6711 123.442 50.8804C117.367 50.1176 107.465 49.9971 96.4298 50.2129C96.5069 50.4659 96.5522 50.7323 96.5393 51.0119L95.9604 63.5485L102.631 62.962C103.539 59.9084 106.429 57.7443 109.754 57.8977Z" fill="#DBDBDB"/>
<path d="M208.31 173.892L227.073 161.813L221.432 147.75C214.253 152.17 207.989 155.763 202.41 158.763L208.31 173.892Z" fill="#DBDBDB"/>
<path d="M150.364 103.382L150.086 98.604L145.023 97.9331C146.695 101.368 148.508 105.098 150.425 109.047C150.507 107.589 150.919 106.219 151.589 105.005C150.906 104.762 150.408 104.136 150.364 103.382Z" fill="#DBDBDB"/>
<path d="M194.142 140.214C194.641 141.425 194.063 142.811 192.853 143.309C192.632 143.4 192.405 143.454 192.18 143.477C191.167 143.575 190.166 143.009 189.759 142.019L177.236 111.59L168.845 112.508C166.783 118.828 160.152 128.806 160.152 128.806C160.152 128.806 159.95 128.517 159.611 128.019C163.683 136.449 167.948 145.31 172.182 154.153C173.308 153.512 174.619 153.166 176.01 153.229C179.416 153.387 182.147 155.92 182.683 159.154C190.388 155.645 199.518 151.038 211.411 143.962C210.867 140.466 208.736 130.754 200.768 117.241C199.189 114.562 197.78 111.967 196.521 109.482L182.142 111.054L194.142 140.214Z" fill="#DBDBDB"/>
<path d="M277.925 118.122C279.843 117.02 282.751 116.068 286.789 116.558C287.818 116.684 289.062 116.87 290.502 117.087C291.762 117.276 293.196 117.492 294.753 117.703V103.167C288.067 105.982 281.693 108.925 275.973 111.953C276.638 113.496 277.354 115.545 277.925 118.122Z" fill="#DBDBDB"/>
<path d="M247.678 81.2475L225.381 87.1594L198.877 94.0094C199.983 96.9125 201.376 100.214 203.113 103.796L249.429 88.6474L247.678 81.2475Z" fill="#DBDBDB"/>
<path d="M276.23 102.347C282.019 99.4587 288.282 96.6695 294.752 94.0133V83.5136C294.752 79.0244 294.372 74.6248 293.652 70.34C284.145 76.1661 274.919 81.7006 267.952 85.63L276.23 102.347Z" fill="#DBDBDB"/>
<path d="M258.107 39.4931L262.12 58.6539L276.483 59.3166C277.501 59.3638 278.287 60.2266 278.24 61.2434C278.193 62.2606 277.336 63.0473 276.314 62.9996L262.901 62.3812L266.771 80.8611C273.845 76.8322 283.147 71.2281 292.659 65.3838C290.317 55.4154 286.089 46.1749 280.37 38.0599C269.964 37.8507 262.364 38.3382 258.107 39.4931Z" fill="#DBDBDB"/>
<path d="M225.705 34.7028L183.633 31.784C183.551 40.5099 185.454 49.9995 187.858 58.7744L228.053 52.104C227.012 44.2925 226.097 37.5734 225.705 34.7028ZM192.19 50.293C190.045 50.1939 188.387 48.3748 188.486 46.2302C188.565 44.5212 189.882 42.9231 191.439 42.4743C190.804 43.1309 190.247 44.2119 190.201 45.1973C190.103 47.3423 191.728 49.3329 193.872 49.432C194.308 49.452 194.618 49.4253 195.016 49.3115C194.267 50.0843 193.35 50.3463 192.19 50.293ZM195.928 45.6613L195.245 46.8968L194.679 45.6037L193.293 45.3369L194.349 44.3987L194.174 42.9984L195.392 43.7117L196.67 43.1132L196.368 44.4921L197.332 45.5231L195.928 45.6613Z" fill="#DBDBDB"/>
<path d="M228.874 25.8616L218.466 19.852C215.275 19.6219 200.555 18.5594 184.947 17.4188C184.584 20.9031 184.25 23.9481 183.964 26.3538C183.895 26.9303 183.84 27.5135 183.792 28.1L226.238 31.0445L228.874 25.8616Z" fill="#DBDBDB"/>
<path d="M232.46 81.4681C231.96 80.2203 231.445 78.4102 231.126 75.8326C230.92 74.1669 230.699 72.413 230.47 70.6096L194.716 80.4108C194.784 80.6172 194.854 80.8268 194.92 81.0283C194.978 81.2056 195.024 81.3871 195.058 81.5705C195.07 81.6358 195.73 85.0292 197.616 90.5275L224.448 83.5922L232.46 81.4681Z" fill="#DBDBDB"/>
<path d="M248.043 11.3973C243.085 9.17364 237.856 7.45077 232.419 6.28345C237.004 8.033 242.469 9.9174 248.035 11.4282C248.038 11.4178 248.041 11.4073 248.043 11.3973Z" fill="#DBDBDB"/>
<path d="M246.51 14.824C236.19 11.9705 226.337 7.94488 221.617 5.79129L220.681 15.6564L239.586 26.5735L246.51 14.824Z" fill="#DBDBDB"/>
<path d="M228.538 55.7613L188.873 62.3436C190.382 67.4836 191.998 72.2925 193.393 76.4458C193.446 76.6021 193.496 76.7531 193.548 76.9075L229.997 66.9157C229.521 63.2298 229.024 59.4281 228.538 55.7613Z" fill="#DBDBDB"/>
<path d="M242.779 28.4169L256.239 36.1893C256.307 36.1698 256.379 36.1493 256.444 36.1293C260.601 34.8495 267.693 34.2497 277.574 34.3326C272.386 27.8199 266.191 22.1467 259.223 17.5465C256.309 17.1467 253.269 16.5359 250.219 15.7921L242.779 28.4169Z" fill="#DBDBDB"/>
<path d="M286.279 120.741C281.806 120.196 279.463 121.993 278.691 122.752C278.775 123.489 278.846 124.251 278.9 125.047C279.388 132.262 287.819 157.369 290.114 164.092L294.752 163.897V121.954C292.955 121.716 291.307 121.469 289.874 121.254C288.466 121.042 287.25 120.859 286.279 120.741Z" fill="#DBDBDB"/>
<path d="M258.123 112.952C262.135 110.078 266.841 107.258 272.014 104.515L263.799 87.9246C261.205 89.3211 259.128 90.3541 257.735 90.9125C257.687 90.932 257.638 90.9501 257.589 90.9658L205.288 108.073C206.135 109.664 207.046 111.295 208.027 112.961C214.901 124.618 217.835 133.8 219.086 139.287C229.812 132.608 242.578 124.083 258.123 112.952Z" fill="#DBDBDB"/>
<path d="M266.326 264.384L266.82 274.49C269.242 272.436 271.538 270.239 273.696 267.911L273.942 263.506L266.326 264.384Z" fill="#DBDBDB"/>
<path d="M163.681 100.848L164.371 89.3302L164.704 82.1037C164.751 81.0865 165.614 80.2999 166.631 80.3475C167.647 80.3942 168.434 81.2566 168.387 82.2738L168.052 89.525L167.217 103.471C168.219 104.663 168.932 106.105 169.253 107.695L178.417 106.693C178.467 106.686 178.518 106.679 178.57 106.676L181.089 106.401C180.465 102.226 178.603 88.0861 181.098 82.7112C181.693 81.43 182.152 80.4399 182.507 79.6757L161.063 79.5442C161.046 89.3735 160.687 94.9481 159.994 96.123C159.626 96.7477 159.139 97.5767 153.728 97.7258L153.951 101.56C154.201 101.579 154.467 101.598 154.739 101.617C156.171 100.684 157.867 100.115 159.702 100.072C161.116 100.039 162.461 100.323 163.681 100.848Z" fill="#DBDBDB"/>
<path d="M265.852 254.803C265.858 254.85 265.861 254.898 265.863 254.945L265.912 255.948L284.103 253.852C285.434 251.561 286.655 249.2 287.755 246.772L265.429 247.545C265.483 250.56 265.68 253.224 265.852 254.803Z" fill="#DBDBDB"/>
<path d="M227.002 273.482C229.285 278.324 231.178 282.522 232.461 285.88C232.496 285.966 232.529 286.053 232.559 286.141C233.296 288.093 233.819 289.751 234.085 291.077C244.405 288.624 253.94 284.147 262.249 278.088L261.626 265.339L227.002 273.482Z" fill="#DBDBDB"/>
<path d="M268.709 229.746C268.198 230.753 267.715 231.704 267.311 232.569C266.153 235.047 265.645 238.908 265.48 242.8L289.74 241.961C291.462 237.369 292.769 232.574 293.615 227.623L269.463 228.255C269.205 228.769 268.954 229.265 268.709 229.746Z" fill="#DBDBDB"/>
<path d="M103.889 287.875C102.651 286.413 101.677 284.803 100.981 283.062L94.3848 283.205L95.5673 293.219H99.1041C99.5034 290.569 101.43 288.913 103.889 287.875Z" fill="#DBDBDB"/>
<path d="M218.702 275.646C209.113 278.483 182.216 286.252 166.852 288.789C157.689 290.303 155.045 292.494 154.398 293.219H176.792L176.522 291.821C176.273 290.535 177.112 289.292 178.397 289.043C179.682 288.792 180.927 289.633 181.175 290.918L181.621 293.219H185.029C200.359 288.8 215.145 285.749 222.693 284.306C221.559 281.727 220.193 278.786 218.702 275.646Z" fill="#DBDBDB"/>
<path d="M222.477 292.931C223.587 292.838 224.693 292.726 225.789 292.587C225.769 292.494 225.752 292.406 225.728 292.308C224.803 292.482 223.708 292.691 222.477 292.931Z" fill="#DBDBDB"/>
<path d="M288.5 168.904L280.413 169.245L282.131 182.874L294.753 184.204V168.642L288.591 168.901C288.561 168.902 288.53 168.904 288.5 168.904Z" fill="#DBDBDB"/>
<path d="M37.2837 49.4692C42.4938 49.0913 54.6082 48.2513 68.456 47.5514L68.8786 33.4182L69.1711 27.0752C69.175 26.9908 69.184 26.907 69.1993 26.8245L73.1562 5.40726C65.0731 6.62747 57.394 9.07456 50.3091 12.5494C49.0641 17.9395 47.7967 22.9466 46.3502 27.1971C44.0513 33.9528 40.6928 41.9264 37.2837 49.4692Z" fill="#ADC83C"/>
<path d="M245.735 131.911C238.294 136.99 231.595 141.381 225.519 145.204L234.859 168.487L243.553 164.7C244.752 164.177 246.15 164.726 246.672 165.927C247.195 167.127 246.646 168.523 245.446 169.046L236.624 172.889L238.798 178.309L262.117 180.765L259.299 168.237C259.291 168.203 259.284 168.169 259.277 168.134L255.16 149.83L245.735 131.911Z" fill="#ADC83C"/>
<path d="M168.387 82.2733C168.434 81.2565 167.647 80.3941 166.63 80.3475C165.613 80.2998 164.751 81.086 164.704 82.1032L164.37 89.3301L163.68 100.847C165.055 101.438 166.264 102.339 167.216 103.471L168.052 89.5255L168.387 82.2733Z" fill="#FDF4F0"/>
<path d="M29.7711 267.666L22.5046 250.975C21.9819 249.774 20.583 249.224 19.3857 249.748C18.185 250.27 17.6357 251.667 18.1579 252.866L22.1301 261.991C24.3504 264.91 26.767 267.672 29.3642 270.253L29.601 269.879C30.0207 269.215 30.0846 268.387 29.7711 267.666Z" fill="#FDF4F0"/>
<path d="M178.397 289.043C177.112 289.291 176.272 290.535 176.521 291.821L176.792 293.219H181.621L181.175 290.918C180.927 289.633 179.682 288.792 178.397 289.043Z" fill="#FDF4F0"/>
<path d="M38.3723 24.4818C32.2617 42.4333 17.805 70.4834 16.8011 72.4225C16.2279 73.3855 11.8421 80.741 6.0498 90.172V106.172C7.0294 104.611 7.999 103.059 8.94716 101.533L17.0255 105.244L18.2157 127.668L16.4561 125.814C16.4252 125.782 16.3913 125.753 16.3599 125.722C16.7982 125.176 16.7382 124.379 16.2074 123.911L6.0498 114.969V118.477L12.927 124.532C12.007 124.636 11.1398 125.036 10.4675 125.688L6.0498 129.968V150.747C7.37293 151.842 8.62412 152.974 9.78668 154.147C10.8239 155.193 11.8955 156.279 12.9937 157.393L6.0498 163.479V166.981L14.8448 159.273C15.2936 159.728 15.7495 160.192 16.206 160.656C14.6084 162.236 12.9999 163.761 11.48 165.094C10.4156 166.028 9.34452 167.146 8.27868 168.399C7.43678 167.865 6.67302 167.378 6.0498 166.981V178.753C7.19998 176.904 8.37398 175.152 9.55035 173.57C11.5229 174.817 13.4616 176.036 14.6966 176.796C16.7053 178.031 18.421 177.948 19.5036 177.66C21.3532 177.17 22.5639 175.828 23.1499 175.018L28.4314 173C28.6096 173.178 28.7859 173.353 28.9641 173.53L15.6671 191.247L6.0498 186.443V189.386L14.0605 193.388L12.9685 194.843C12.5802 195.361 12.4201 196.015 12.5258 196.653C12.6321 197.292 12.9951 197.86 13.5297 198.224L16.5914 200.31C16.3346 200.577 16.1888 200.947 16.2308 201.346L17.9236 217.435L6.06696 215.592C6.0946 217.215 6.16701 218.827 6.29138 220.424L54.771 227.957C55.0135 227.998 55.2641 228.001 55.5133 227.964C55.7587 227.929 55.9936 227.854 56.2113 227.747L73.3 219.622C73.9113 221.383 74.8018 224.49 75.2659 228.65L69.8252 228.399C68.5159 228.339 67.4091 229.35 67.3481 230.658C67.2881 231.966 68.2991 233.074 69.607 233.135L75.5651 233.41C75.6003 235.742 75.4822 238.4 75.102 241.328L53.8224 247.674L51.8284 244.88C51.068 243.814 49.5886 243.567 48.5223 244.327C47.4569 245.087 47.2096 246.568 47.9696 247.633L50.9098 251.752C50.9341 251.789 50.9598 251.825 50.986 251.861L63.7889 269.801C63.2558 270.444 62.6988 271.069 62.1237 271.671L39.7035 240.106C38.9459 239.038 37.4656 238.788 36.3988 239.547C35.3315 240.304 35.0809 241.784 35.8389 242.851L58.6127 274.914C54.6986 278.116 50.1751 280.625 45.4572 282.594C47.1829 283.595 48.9482 284.536 50.7535 285.407C53.6718 283.985 56.3624 282.414 58.8047 280.691C58.8457 281.024 58.8948 281.364 58.9524 281.711C58.9638 281.885 58.9939 282.053 59.0406 282.214C59.4346 284.352 60.1212 286.761 61.045 289.502C62.8751 290.084 64.7342 290.602 66.6196 291.053C65.6281 288.328 64.8276 285.933 64.2735 283.86L89.6239 283.309L90.7936 293.219H95.5673L94.3852 283.205L100.982 283.062C101.678 284.803 102.651 286.413 103.889 287.875C101.43 288.912 99.5033 290.569 99.1045 293.219H154.398C155.045 292.495 157.689 290.303 166.851 288.789C182.216 286.252 209.113 278.484 218.702 275.646C220.192 278.786 221.559 281.727 222.693 284.306C215.145 285.75 200.359 288.801 185.029 293.219H215.755C218.02 293.219 220.261 293.118 222.477 292.931C223.708 292.691 224.803 292.482 225.729 292.309C225.752 292.406 225.77 292.495 225.79 292.587C228.604 292.23 231.371 291.722 234.085 291.076C233.819 289.751 233.296 288.093 232.559 286.141C232.529 286.053 232.497 285.966 232.461 285.88C231.178 282.522 229.285 278.324 227.002 273.482L261.626 265.339L262.25 278.087C263.818 276.944 265.342 275.745 266.819 274.491L266.325 264.384L273.942 263.506L273.696 267.911C277.659 263.636 281.156 258.924 284.104 253.852L265.913 255.949L265.864 254.945C265.861 254.898 265.858 254.85 265.853 254.803C265.68 253.224 265.483 250.56 265.429 247.545L287.755 246.772C288.469 245.196 289.128 243.59 289.739 241.961L265.48 242.8C265.645 238.908 266.152 235.047 267.311 232.569C267.715 231.704 268.197 230.753 268.708 229.746C268.953 229.265 269.204 228.77 269.462 228.255L293.615 227.623C294.36 223.266 294.752 218.79 294.752 214.222V184.204L282.131 182.875L280.413 169.245L288.499 168.904C288.53 168.904 288.56 168.902 288.591 168.901L294.752 168.642V163.897L290.114 164.092C287.82 157.369 279.388 132.262 278.9 125.047C278.847 124.251 278.775 123.489 278.691 122.752C279.464 121.994 281.807 120.196 286.279 120.741C287.249 120.859 288.466 121.042 289.875 121.254C291.307 121.47 292.955 121.716 294.752 121.954V117.703C293.195 117.491 291.761 117.276 290.502 117.087C289.061 116.87 287.818 116.684 286.789 116.558C282.751 116.068 279.843 117.02 277.925 118.122C277.353 115.545 276.638 113.497 275.973 111.953C281.693 108.925 288.066 105.982 294.752 103.167V94.0142C288.282 96.6705 282.019 99.4592 276.23 102.347L267.952 85.63C274.92 81.7006 284.145 76.167 293.653 70.3409C293.372 68.6704 293.043 67.0167 292.659 65.3838C283.147 71.2276 273.846 76.8322 266.771 80.8611L262.901 62.3807L276.314 63.0001C277.337 63.0473 278.194 62.2602 278.24 61.2434C278.288 60.2262 277.501 59.3638 276.484 59.3166L262.12 58.6539L258.107 39.4931C262.363 38.3381 269.964 37.8512 280.37 38.0599C279.474 36.7892 278.541 35.5466 277.574 34.3326C267.692 34.2497 260.601 34.8495 256.443 36.1298C256.379 36.1493 256.307 36.1698 256.239 36.1898L242.779 28.4169L250.219 15.7921C253.268 16.5364 256.309 17.1467 259.223 17.5465C255.684 15.2104 251.949 13.1487 248.043 11.3978C248.041 11.4078 248.038 11.4183 248.036 11.4287C242.469 9.9174 237.004 8.03301 232.419 6.28298C227.907 5.31386 223.252 4.7302 218.49 4.56868C218.695 4.62157 218.89 4.67541 219.072 4.72925L218.091 15.0722C213.937 14.7725 200.093 13.772 185.431 12.7004C185.692 10.1142 185.963 7.36501 186.241 4.51627H181.975L181.245 12.2139C180.695 17.6718 180.19 22.4097 179.779 25.8545C179.626 27.1295 179.601 28.4311 179.468 29.7381C177.941 44.8056 186.375 68.5918 186.375 68.5918C188.025 73.8124 189.665 78.5169 190.914 82.3372C193.29 95.1815 194.395 94.9119 197.907 102.637C197.907 102.637 211.604 125.248 214.376 137.802C215.432 142.584 215.797 145.159 215.797 145.159C215.797 145.159 215.432 142.584 214.376 137.802C211.604 125.248 197.907 102.637 197.907 102.637C194.395 94.9119 193.29 95.1815 190.914 82.3372C189.665 78.5169 188.025 73.8124 186.375 68.5918C186.375 68.5918 177.941 44.8056 179.468 29.7381C179.601 28.4311 179.626 27.1295 179.779 25.8545C180.19 22.4097 180.695 17.6718 181.245 12.2139L181.975 4.51627H177.774C177.517 7.14918 177.265 9.68965 177.023 12.0848C170.535 11.6084 164.224 11.1424 158.853 10.7407L160.417 4.51627H156.615L155.122 10.4601C149.283 10.0194 145.068 9.69061 143.82 9.56815C143.708 9.55768 143.597 9.55195 143.486 9.54339L144.688 4.51627H140.898L139.641 9.77114C137.944 10.0761 136.354 10.6087 134.984 11.1867C134.315 9.11172 133.373 6.93334 132.115 4.51627H122.465C124.722 8.28886 126.134 11.2077 126.963 13.8387C128.753 19.5223 127.802 24.3989 125.908 34.1143C125.658 35.3979 125.394 36.7563 125.119 38.2014C124.514 41.3813 124.074 44.3896 123.769 47.2217C112.842 45.9062 91.3201 46.4589 72.1498 47.3699L72.5624 33.5583L72.8478 27.3706L76.9949 4.92174C76.0087 5.02179 75.03 5.14567 74.0547 5.28099L70.619 24.0472L68.4554 47.5509L35.8809 53.2699C38.7196 53.0612 47.7275 52.4156 59.1049 51.7628C58.3749 54.6078 56.8531 60.6021 56.2304 63.5433C55.9131 63.6238 55.5905 63.7062 55.2656 63.7901C55.8997 64.8292 56.2652 66.0433 56.2914 67.3335C56.2981 67.3316 56.3052 67.3297 56.3119 67.3283C56.8617 69.6167 58.0633 72.4907 59.3159 75.1307L43.3536 74.3937C43.1354 74.2745 42.9172 74.1573 42.7023 74.0425C39.7111 72.4487 36.0977 71.0646 31.9615 69.9278C30.3173 69.4761 29.1128 69.1736 28.218 68.9816L28.2409 68.4813C28.4986 67.9629 28.764 67.4274 29.0384 66.8709C32.0306 67.4426 36.9848 68.2564 42.1854 68.5485C42.1168 68.0958 42.0896 67.6303 42.1115 67.1553C42.1487 66.3496 42.325 65.5849 42.6056 64.8745C38.1012 64.6286 33.7001 63.9602 30.7256 63.4256C31.9191 60.9694 33.2079 58.2784 34.5311 55.4501L35.8809 53.2699L40.0637 34.6651L46.9628 14.2908C44.6201 15.5825 42.3502 16.9909 40.1604 18.506C39.5839 20.6506 38.9921 22.6598 38.3723 24.4818ZM15.7724 148.214C13.1505 145.569 10.1669 143.12 6.93078 140.847L13.2734 134.703L24.9023 146.955L19.342 151.829C18.1171 150.585 16.9235 149.376 15.7724 148.214ZM26.7167 148.867L27.0064 149.172C25.8505 150.476 24.1071 152.417 22.0698 154.6C21.7763 154.301 21.4832 154.004 21.1931 153.709L26.7167 148.867ZM21.2774 171.787C20.8691 171.943 20.5294 172.239 20.3197 172.623C20.3126 172.634 19.6074 173.819 18.5602 174.096C17.986 174.247 17.3562 174.103 16.6281 173.655C15.4789 172.949 13.7117 171.838 11.8764 170.679C12.6797 169.765 13.4764 168.948 14.2582 168.262C15.8491 166.867 17.5167 165.288 19.1643 163.661C21.3313 165.858 23.4706 168.021 25.5813 170.142L21.2774 171.787ZM28.9617 161.594C27.6195 160.237 26.3069 158.905 25.0314 157.609C27.0135 155.488 28.7259 153.587 29.9194 152.242L34.4091 156.972L28.9617 161.594ZM89.9298 136.669C91.9043 139.312 93.7548 141.691 95.4877 143.841L77.1174 162.276L73.816 159.151C73.8027 159.138 73.7893 159.126 73.7755 159.113L66.0026 151.756L69.6703 146.945C70.1011 146.38 70.0053 145.575 69.4545 145.126L65.4584 141.87L80.9152 122.992C83.8188 127.949 86.8295 132.519 89.9298 136.669ZM77.7368 106.873C82.175 104.95 86.647 103.543 88.2722 103.566C88.9526 104.962 90.3248 108.324 91.8781 112.267L82.3418 115.88C80.7709 112.997 79.2352 109.993 77.7368 106.873ZM156.836 177.357L154.515 177.25L154.741 172.362L157.062 172.469C157.649 170.969 158.682 169.732 159.974 168.884C158.62 169.496 157.268 170.126 155.902 170.792L147.936 154.038L160.124 148.521C162.813 154.119 165.521 159.772 168.188 165.36C166.137 166.211 164.159 167.042 162.201 167.896C162.931 167.704 163.697 167.616 164.481 167.651C167.748 167.802 170.529 170.026 171.426 173.132L171.445 173.133C171.569 173.082 171.69 173.03 171.816 172.979C171.844 173.037 171.871 173.095 171.899 173.154L173.747 173.239L173.587 176.709C175.097 179.893 176.58 183.029 178.022 186.088L142.508 200.507C141.471 196.948 139.864 193.51 137.983 190.298C140.198 189.057 142.449 187.787 144.736 186.492C148 184.644 151.081 182.898 153.991 181.281C155.256 180.577 156.492 179.928 157.717 179.304C157.34 178.708 157.038 178.056 156.836 177.357ZM134.657 114.439L127.497 81.2327C131.338 89.0867 144.257 115.537 158.069 144.248L145.9 149.757L130.68 117.742L132.861 117.251C134.129 116.965 134.931 115.71 134.657 114.439ZM264.787 183.524H240.186L221.879 142.384L246.502 129.004L256.576 146.701L264.787 183.524ZM264.535 169.912L275.659 169.444L277.289 182.364L276.02 182.231C275.95 182.219 275.877 182.213 275.804 182.208L267.094 181.29L264.535 169.912ZM208.612 193.521L207.116 190.908L217.334 185.584C218.495 184.979 218.945 183.547 218.34 182.386C218.085 181.897 217.68 181.543 217.213 181.332L233.551 183.053L197.738 208.532C196.292 205.346 194.71 201.902 193.02 198.253L202.909 193.099L204.499 195.877C205.15 197.013 206.598 197.407 207.734 196.755C208.87 196.105 209.263 194.657 208.612 193.521ZM233.465 177.747L214.227 175.721L228.87 166.294L233.465 177.747ZM215.732 181.176C215.531 181.22 215.333 181.281 215.143 181.38L191.021 193.949C187.523 186.441 183.647 178.22 179.607 169.719C184.888 167.464 190.745 164.822 197.72 161.232L204.476 178.557C204.833 179.475 205.673 180.116 206.653 180.219L215.732 181.176ZM183.535 197.849L167.578 206.164L165.18 199.769C164.72 198.543 163.355 197.922 162.129 198.382C160.904 198.842 160.283 200.208 160.742 201.433L164.081 210.336C164.318 210.971 164.817 211.474 165.452 211.717C165.798 211.85 166.167 211.898 166.529 211.862C166.828 211.833 167.122 211.747 167.395 211.605L185.535 202.153C187.307 205.98 188.956 209.572 190.446 212.861C185.016 214.997 173.327 219.719 165.425 223.809C161.71 225.732 152.319 226.736 146.401 227.14C145.291 216.835 144.084 207.702 143.187 203.248C143.176 203.195 143.162 203.142 143.151 203.089L179.145 188.474C180.662 191.7 182.131 194.835 183.535 197.849ZM133.256 183.294C129.204 177.972 124.989 173.774 122.649 171.445L122.179 170.978C121.503 170.302 120.672 169.827 119.695 169.552L119.796 167.367C119.979 163.387 117.508 160.871 113.023 156.304C112.816 156.093 112.604 155.876 112.386 155.654L121.589 149.512L139.928 179.53C137.802 180.734 135.566 181.999 133.256 183.294ZM89.7683 189.715C99.682 184.281 112.06 178.338 117.02 177.733C118.951 179.659 122.395 183.138 125.779 187.44C115.891 192.844 105.371 198.239 96.5469 201.611L89.7683 189.715ZM94.0393 202.53C88.0388 204.627 83.004 205.612 79.7593 204.77C79.4106 204.667 79.0718 204.561 78.7454 204.451C78.4214 204.333 78.087 204.199 77.7416 204.049C76.6357 201.715 75.9267 199.069 76.2016 198.127C77.57 196.84 81.9711 194.08 87.4651 190.993L94.0393 202.53ZM109.041 152.187C107.195 150.234 105.088 147.921 102.704 145.122L116.097 140.523L119.116 145.464L109.041 152.187ZM109.641 159.625C113.825 163.885 115.145 165.32 115.06 167.148L114.949 169.545C105.998 171.303 86.0691 181.489 75.6837 188.22L63.0938 174.954L72.3352 164.277L75.536 167.307C76.4699 168.19 77.9369 168.168 78.8445 167.258L98.5175 147.516C103.207 153.074 106.88 156.814 109.641 159.625ZM49.7239 173.109L55.1893 178.868C55.3261 179.194 55.5291 179.497 55.8145 179.744C55.9755 179.883 56.1537 179.988 56.3367 180.077L69.1134 193.539C68.2977 194.818 67.9013 196.25 67.7917 197.722C61.2842 192.744 53.558 185.73 45.7931 178.265L49.7239 173.109ZM43.8854 176.423C41.1958 173.816 38.5138 171.17 35.888 168.553L40.7431 163.647L47.8871 171.174L43.8854 176.423ZM54.8997 166.321L63.1124 155.548L68.8894 161.016L59.8153 171.5L54.8997 166.321ZM66.803 146.363L64.0791 149.936L61.1355 147.15L63.7904 143.908L66.803 146.363ZM61.1884 153.727L53.0629 164.386L44.5462 155.412L45.9613 150.432L51.3972 144.46L61.1884 153.727ZM42.9434 148.27C42.7514 148.481 42.6113 148.733 42.5337 149.007L41.5965 152.304L37.3555 147.835L45.6364 139.008L47.7776 141.034L48.6633 141.985L42.9434 148.27ZM37.6776 160.416L38.2041 160.971L33.2808 165.946C32.9559 165.62 32.6324 165.295 32.3098 164.97L37.6776 160.416ZM25.374 218.592L20.6161 217.853L18.938 201.909L27.7797 207.934L25.374 218.592ZM18.2495 195.704L32.3589 176.904C34.5296 179.053 36.6608 181.14 38.7496 183.16L31.2969 192.937C30.8719 193.494 30.9581 194.287 31.4946 194.74L34.3643 197.166L31.8881 200.697C31.8743 200.717 31.8596 200.737 31.8453 200.758L29.8484 203.607L18.2495 195.704ZM54.8077 223.165L30.069 219.321L32.6557 207.861L34.4148 205.351L58.404 221.455L54.8077 223.165ZM63.3825 219.088L37.1363 201.469L40.5187 196.644L44.3466 199.575C45.3857 200.37 46.8737 200.173 47.6694 199.133C48.4651 198.094 48.2674 196.606 47.2282 195.81L41.4373 191.378C40.9256 190.985 40.2819 190.818 39.6354 190.917C38.9969 191.015 38.4271 191.37 38.0559 191.899L35.8818 195L34.1508 193.537L40.6593 184.999C53.3197 197.14 64.2821 206.551 72.4548 210.821C72.4572 210.823 72.4591 210.825 72.4614 210.826C73.898 211.69 75.3726 212.24 76.8349 212.691L63.3825 219.088ZM56.7335 251.752L74.1848 246.549C73.0051 251.882 70.9363 257.884 67.4853 264.32C67.2314 264.793 66.9679 265.256 66.6944 265.711L56.7335 251.752ZM93.8268 278.477L87.225 222.547C87.0715 221.247 85.8775 220.307 84.5935 220.471C83.2932 220.624 82.3637 221.803 82.5176 223.102L89.0655 278.579L63.4125 279.138C63.3649 278.293 63.4059 277.544 63.5436 276.886C65.3956 275.189 67.0532 273.38 68.5064 271.466C68.6074 271.355 68.696 271.236 68.7727 271.111C69.8533 269.654 70.8176 268.137 71.6624 266.561C84.8265 242.014 79.6741 223.136 77.6129 217.571L83.2761 214.877C84.7545 215.717 85.9133 216.965 86.8157 219.236C90.2171 227.796 97.769 259.584 99.803 278.316C99.804 278.326 99.8059 278.336 99.8073 278.346L93.8268 278.477ZM140.718 281.683C137.811 282.821 129.947 285.309 122.637 286.022C121.465 286.136 120.444 286.187 119.543 286.198C118.831 286.168 118.125 286.146 117.431 286.134C115.366 285.969 114.325 285.54 113.884 285.29C112.203 284.34 110.903 283.245 109.963 281.99L141.068 277.909C140.989 279.663 140.862 280.893 140.718 281.683ZM108.186 277.443C108.185 277.43 108.182 277.418 108.181 277.405C107.841 274.274 107.343 270.738 106.732 266.979L133.628 264.121C134.93 263.983 135.873 262.816 135.735 261.514C135.597 260.219 134.442 259.279 133.148 259.405C133.141 259.406 133.134 259.406 133.127 259.407L105.934 262.296C102.782 244.581 97.668 223.724 94.6477 216.124C93.9812 214.445 93.1921 213.047 92.3236 211.867C102.612 209.023 115.628 202.594 130.598 194.392C132.598 197.761 134.206 201.345 134.925 204.912C135.454 207.534 136.164 212.331 136.923 218.446L128.536 220.386L127.764 214.139C127.604 212.84 126.413 211.932 125.122 212.077C123.823 212.237 122.899 213.42 123.059 214.719L124.153 223.578C124.236 224.245 124.597 224.845 125.148 225.23C125.613 225.556 126.177 225.702 126.736 225.647C126.838 225.637 126.939 225.62 127.04 225.597L137.489 223.18C138.278 230.027 139.082 238.026 139.758 246.28C140.78 258.761 141.138 267.39 141.154 273.116L108.186 277.443ZM146.899 289.274C146.482 290.003 146.211 290.73 146.038 291.431C144.95 290.943 143.761 290.478 142.445 290.041C146.383 288.641 146.975 287.866 147.433 287.264C148.712 285.589 151.091 282.469 148.283 247.145C147.887 242.159 147.409 236.937 146.895 231.862C152.559 231.482 162.86 230.474 167.604 228.019C169.787 226.889 172.298 225.697 174.895 224.523L176.708 228.726C173.834 230.137 170.766 231.732 168.069 233.319C160.927 237.523 155.277 238.342 155.227 238.348C153.98 238.514 153.08 239.624 153.175 240.878L156.361 282.681C151.611 284.328 148.481 286.508 146.899 289.274ZM158.061 242.598C160.626 241.965 165.18 240.52 170.474 237.404C172.91 235.97 175.707 234.511 178.376 233.192L182.688 255.392L159.427 260.527L158.061 242.598ZM159.791 265.301L183.592 260.047L184.706 265.786L160.269 271.575L159.791 265.301ZM165.478 280.475C163.887 280.738 162.407 281.035 161.015 281.359L160.633 276.36L185.611 270.443L186.647 275.775C178.923 277.744 171.271 279.518 165.478 280.475ZM182.794 231.075C184.342 230.353 185.713 229.734 186.766 229.266L196.383 252.369L187.318 254.37L182.794 231.075ZM188.222 259.025L198.233 256.815L200.418 262.064L189.323 264.693L188.222 259.025ZM191.244 274.583L190.228 269.35L204.225 266.034C204.901 265.874 205.473 265.424 205.79 264.805C206.106 264.186 206.134 263.459 205.866 262.817L190.215 225.217C189.972 224.633 189.507 224.171 188.922 223.932C188.337 223.694 187.681 223.699 187.099 223.946C186.885 224.037 184.384 225.104 180.989 226.682L179.231 222.608C184.43 220.361 189.443 218.352 192.396 217.191C194.802 222.575 196.651 226.887 197.744 229.729C202.353 241.71 208.81 255.098 214.509 266.91C214.676 267.256 214.843 267.601 215.009 267.945C209.741 269.491 200.707 272.091 191.244 274.583ZM223.282 265.699C222.894 264.894 222.5 264.077 222.1 263.248C216.472 251.582 210.094 238.361 205.61 226.703C204.415 223.596 202.375 218.852 199.725 212.936L239.408 184.703C239.758 184.455 240.018 184.123 240.186 183.752L246.516 184.419L247.743 237.174L230.389 241.427C229.118 241.739 228.34 243.022 228.651 244.293C228.963 245.565 230.248 246.343 231.518 246.032L247.856 242.027L248.27 259.823L223.282 265.699ZM267.056 222.282L263.785 220.567C262.884 220.094 261.781 220.248 261.046 220.952L255.081 226.652C254.135 227.556 254.101 229.057 255.005 230.003C255.91 230.95 257.412 230.983 258.356 230.079L263.09 225.556L265.008 226.562C264.829 226.917 264.653 227.262 264.481 227.601C263.953 228.642 263.453 229.627 263.016 230.561C259.428 238.238 260.986 253.867 261.132 255.244L261.207 256.78L252.986 258.713L251.27 184.92L273.306 187.241C273.43 204.888 270.195 215.22 267.056 222.282ZM294.005 189.422L294.224 222.865L271.725 223.454C274.921 216.081 278.112 205.414 278.049 187.741L294.005 189.422ZM285.175 164.3L263.477 165.211L259.716 148.484C259.694 148.389 259.667 148.294 259.634 148.202L277.877 141.379C280.405 150.065 283.566 159.557 285.175 164.3ZM276.587 136.801L257.431 143.965L249.669 129.209C253.888 126.293 258.333 123.166 263.028 119.804C265.641 117.933 268.586 116.079 271.791 114.25C272.736 116.564 273.824 120.222 274.171 125.367C274.337 127.827 275.287 132.007 276.587 136.801ZM258.154 62.8453L262.435 83.2839C259.666 84.7943 257.468 85.9049 256.039 86.4852L253.083 87.4524L249.143 65.4205L258.154 62.8453ZM257.396 59.227L248.098 61.8842L242.916 51.5051L247.751 50.0018C248.492 49.7717 249.01 49.1013 249.045 48.3266L249.296 42.8912L253.603 41.1149L257.396 59.227ZM233.063 35.2026L235.853 45.5298C235.885 45.648 235.928 45.7628 235.983 45.8724L237.68 49.2714L231.644 51.1477C230.496 42.5291 229.511 35.3226 229.232 33.2891L232.071 27.7084L236.603 30.3255L233.533 33.4244C233.07 33.8914 232.892 34.5684 233.063 35.2026ZM239.349 52.6138L244.491 62.9148L242.102 63.5981L233.587 65.9318C233.114 62.2606 232.618 58.4857 232.137 54.856L239.349 52.6138ZM243.095 67.1481L245.579 66.4387L247.551 77.4668L236.062 80.5128C235.67 79.6628 235.118 78.0733 234.785 75.3794C234.558 73.5503 234.315 71.6164 234.061 69.6253L243.095 67.1481ZM250.557 38.3829L246.807 39.9295C246.144 40.203 245.7 40.8338 245.667 41.549L245.422 46.8648L241.248 48.1627L239.364 44.3901L236.899 35.2655L239.904 32.2319L250.557 38.3829ZM221.616 5.79128C226.337 7.94535 236.189 11.9709 246.51 14.8244L239.586 26.5734L220.681 15.6568L221.616 5.79128ZM183.963 26.3538C184.25 23.9481 184.584 20.9031 184.947 17.4188C200.554 18.5594 215.275 19.6219 218.466 19.852L228.873 25.8616L226.238 31.0445L183.792 28.1C183.839 27.5135 183.895 26.9303 183.963 26.3538ZM183.633 31.7845L225.704 34.7032C226.097 37.5739 227.012 44.2934 228.053 52.1049L187.858 58.7749C185.454 49.9995 183.551 40.5103 183.633 31.7845ZM193.393 76.4462C191.997 72.2929 190.382 67.4841 188.873 62.344L228.538 55.7617C229.024 59.4286 229.522 63.2302 229.997 66.9161L193.548 76.9079C193.496 76.7536 193.445 76.6025 193.393 76.4462ZM197.616 90.5275C195.729 85.0292 195.07 81.6358 195.057 81.5705C195.024 81.3871 194.977 81.2056 194.919 81.0283C194.854 80.8268 194.784 80.6172 194.716 80.4109L230.47 70.6096C230.699 72.413 230.92 74.1669 231.126 75.8326C231.445 78.4102 231.959 80.2203 232.46 81.4681L224.447 83.5926L197.616 90.5275ZM198.877 94.0099L225.381 87.1589L247.678 81.248L249.429 88.6474L203.113 103.796C201.376 100.214 199.983 96.913 198.877 94.0099ZM208.027 112.96C207.046 111.295 206.135 109.663 205.288 108.073L257.589 90.9658C257.638 90.9496 257.687 90.932 257.735 90.9129C259.128 90.3541 261.205 89.3211 263.799 87.9251L272.015 104.515C266.841 107.258 262.135 110.078 258.122 112.952C242.578 124.083 229.813 132.608 219.086 139.287C217.836 133.799 214.901 124.618 208.027 112.96ZM221.432 147.75L227.073 161.813L208.31 173.892L202.41 158.763C207.99 155.763 214.253 152.17 221.432 147.75ZM200.768 117.24C208.735 130.753 210.866 140.466 211.411 143.962C199.518 151.038 190.388 155.645 182.683 159.154C182.763 159.638 182.796 160.138 182.773 160.648C182.592 164.564 179.271 167.592 175.355 167.411C171.439 167.231 168.41 163.91 168.591 159.993C168.707 157.467 170.135 155.317 172.182 154.152C167.948 145.31 163.683 136.449 159.611 128.019C157.586 125.041 150.51 114.327 150.403 109.82C150.398 109.56 150.41 109.303 150.424 109.047C148.508 105.098 146.695 101.369 145.023 97.9336L150.086 98.6044L150.364 103.382C150.408 104.136 150.906 104.762 151.589 105.006C152.345 103.634 153.428 102.471 154.739 101.617C154.467 101.598 154.201 101.579 153.952 101.56L153.728 97.7258C159.139 97.5767 159.626 96.7472 159.993 96.123C160.687 94.9481 161.046 89.3735 161.063 79.5437L182.506 79.6757C182.152 80.4399 181.692 81.4295 181.098 82.7107C178.604 88.0861 180.465 102.226 181.089 106.401L178.57 106.676C178.517 106.679 178.467 106.686 178.417 106.693L169.253 107.695C169.364 108.239 169.436 108.796 169.45 109.37C169.47 110.217 169.241 111.296 168.845 112.508L177.236 111.591L189.758 142.018C190.166 143.009 191.166 143.575 192.179 143.476C192.405 143.454 192.631 143.399 192.852 143.309C194.063 142.811 194.64 141.425 194.142 140.214L182.142 111.054L196.521 109.481C197.78 111.967 199.189 114.562 200.768 117.24ZM186 80.9059C186.29 81.7721 186.569 82.6083 186.83 83.403C187.174 85.104 189.033 93.4563 194.33 104.953L184.757 106C183.943 100.601 182.592 88.2505 184.442 84.263L186 80.9059ZM184.356 75.9998L159.23 75.8454C158.736 75.8426 158.265 76.036 157.918 76.3833C157.569 76.7302 157.374 77.2019 157.375 77.6936C157.391 84.0624 157.199 91.5109 156.857 93.8374C154.836 94.1686 148.837 94.059 142.976 93.7298C138.123 83.768 134.782 76.946 134.006 75.3609C133.897 75.0588 133.591 74.1521 133.234 72.6865L182.398 69.9912C183.061 72.0828 183.72 74.093 184.356 75.9998ZM157.681 15.4072C163.193 15.8202 169.769 16.3062 176.538 16.8032C176.19 20.1312 175.871 23.0438 175.595 25.3556C175.418 26.8355 175.31 28.3397 175.252 29.8577L154.804 26.8584L157.681 15.4072ZM175.216 33.5793C175.274 36.7701 175.548 40.01 175.985 43.25L150.785 43.3024L154.601 30.5552L175.216 33.5793ZM133.569 33.1609C133.938 33.1781 134.296 33.2315 134.647 33.3025C136.043 25.9755 136.784 20.9003 136.076 15.8822C138.055 14.954 140.764 14.0316 143.358 14.2865C144.583 14.4061 148.499 14.7134 153.95 15.1256L146.869 43.3109L139.641 43.3262C138.792 45.0919 137.234 46.4351 135.354 47.0221L176.549 46.9358C177.695 53.6525 179.439 60.2776 181.274 66.3601L132.499 69.034C131.711 64.2499 131.138 56.889 132.25 47.2789C128.662 46.7767 125.98 43.6164 126.151 39.9248C126.331 36.0083 129.653 32.9804 133.569 33.1609ZM95.8417 66.1171L102.353 65.522C102.332 65.239 102.323 64.9526 102.336 64.6625C102.363 64.0717 102.47 63.5047 102.631 62.9629L95.9604 63.549L96.5393 51.0119C96.5521 50.7327 96.5069 50.4659 96.4297 50.2129C107.465 49.9971 117.368 50.1181 123.442 50.8804C123.169 54.6711 123.137 58.0978 123.256 61.1495L115.769 61.8075C116.143 62.5518 116.385 63.3698 116.476 64.2308L123.385 63.5995C123.599 66.7089 123.965 69.3546 124.364 71.5244L111.969 71.6149C111.081 71.9566 110.111 72.1271 109.1 72.0805C108.354 72.0462 107.64 71.8961 106.975 71.6516L95.5821 71.7345L95.8417 66.1171ZM95.4458 75.4228L121.397 75.2332C121.402 75.3733 121.414 75.5143 121.445 75.6567L123.862 86.8669L117.881 87.582C117.853 87.5844 117.826 87.5877 117.798 87.5916L107.697 88.7994L101.567 77.0223C100.963 75.8611 99.5309 75.4104 98.3703 76.0141C97.2092 76.6182 96.758 78.05 97.3621 79.2106L104.249 92.4419C104.705 93.3167 105.677 93.816 106.633 93.7012L116.426 92.53L119.547 102.849L110.834 106.698C109.637 107.227 109.095 108.627 109.624 109.824C110.153 111.021 111.553 111.562 112.749 111.034L123.381 106.338C124.476 105.854 125.039 104.63 124.691 103.484L121.205 91.9583L124.865 91.5209L129.528 113.143L126.745 113.77C126.043 113.928 125.449 114.398 125.134 115.046C124.819 115.693 124.816 116.449 125.125 117.1L151.679 172.95C151.088 173.266 150.499 173.58 149.894 173.916C148.018 174.959 146.068 176.057 144.056 177.194L119.15 136.428C118.571 135.479 117.413 135.06 116.358 135.422L99.4671 141.222C97.6856 139.021 95.7741 136.571 93.7272 133.832C90.6207 129.673 87.6019 125.07 84.6921 120.059L93.6 116.684C94.8698 119.967 96.1371 123.302 97.1553 126.016C97.3788 126.613 97.8328 127.094 98.4151 127.352C98.9978 127.61 99.6586 127.622 100.25 127.387L122.928 118.373C124.144 117.889 124.738 116.511 124.255 115.294C123.771 114.078 122.391 113.483 121.177 113.967L100.742 122.09C100.07 120.313 99.0955 117.751 98.0344 115.004L106.348 111.854C106.957 111.623 107.444 111.152 107.695 110.551C107.946 109.95 107.939 109.272 107.675 108.676L95.2562 80.6834L95.4458 75.4228ZM82.9469 50.6098C85.9423 50.4969 88.9326 50.3987 91.8733 50.3201C91.8352 50.4721 91.8109 50.6303 91.8033 50.7937L90.8308 71.8632L90.8265 71.9961L82.5352 72.8847L79.807 70.3757L82.9469 50.6098ZM79.1905 50.7589L76.7167 66.3306L73.1375 61.3206L72.3404 51.0648C74.5993 50.9571 76.8901 50.8547 79.1905 50.7589ZM64.072 51.486C65.5747 51.405 67.1032 51.3245 68.6564 51.2459L69.3902 60.6864C67.7607 60.969 65.0001 61.4869 61.3676 62.3097C62.321 58.2589 63.8804 52.2264 64.072 51.486ZM70.6704 64.2103L76.3255 72.1262C76.3379 72.1438 76.3536 72.1595 76.367 72.1777C76.4222 72.2501 76.4827 72.3168 76.5471 72.3797C76.5595 72.3925 76.5685 72.4068 76.5818 72.4192L80.6537 76.1637C81.0444 76.5229 81.5904 76.6907 82.0983 76.6402L90.6917 75.7187L90.4992 81.0588C90.4863 81.419 90.5554 81.7764 90.7012 82.1056L102.325 108.309L96.3115 110.587C94.5053 106.006 92.769 101.783 92.0686 100.619C91.4364 99.5692 89.5558 96.4475 75.7285 102.571C69.8009 89.5036 66.6958 79.255 66.6639 79.1482C66.6158 78.9886 66.551 78.8343 66.4704 78.688C64.0057 74.2074 61.4552 68.6762 60.8525 66.2129C65.6352 65.097 69.1081 64.4714 70.6704 64.2103ZM61.2075 78.9086C61.5696 79.5985 61.9069 80.2246 62.1985 80.7563C62.4682 81.6339 63.433 84.6923 65.0925 89.1767L61.1413 86.337C60.9111 86.1717 60.6505 86.064 60.3785 86.0173L49.3951 78.3635L61.2075 78.9086ZM41.7775 78.0119L42.3173 78.0367C42.8548 78.344 43.3746 78.6613 43.8382 78.9848L52.9862 85.3593C49.4056 84.4831 45.1018 83.0695 41.6117 81.7497L41.7775 78.0119ZM38.1779 75.9636C38.1769 75.9769 38.176 75.9898 38.176 76.0036L37.8696 82.9108C37.8348 83.6979 38.3032 84.4193 39.0355 84.708C41.5903 85.7138 53.7714 90.3622 59.3965 89.8271L67.5434 95.5041C68.848 98.7311 70.386 102.332 72.1613 106.163C74.1729 110.505 76.2588 114.646 78.4095 118.569L57.6831 143.883L46.6002 133.393C46.1776 132.993 45.6459 132.789 45.107 132.759L44.8492 132.482C44.8183 132.448 44.7854 132.416 44.7516 132.385C44.49 132.142 39.2813 127.359 33.3947 124.223C34.5087 122.805 35.0699 121.383 35.0652 119.981C35.0585 117.661 33.5572 116.191 32.8358 115.485C32.7601 115.411 32.6943 115.348 32.6457 115.295C31.8071 114.375 30.4016 113.813 28.9765 113.829C27.8187 113.841 26.1082 114.237 24.5392 116.038C23.3857 117.361 22.9931 119.039 23.4348 120.763C24.0199 123.047 25.9906 125.11 28.4562 126.017C34.6935 128.312 41.566 134.472 42.2025 135.049L42.6442 135.524C42.729 136.008 42.9568 136.471 43.3413 136.836L43.7239 137.198L35.5392 145.921L21.0096 130.612L19.6136 104.31C19.6122 104.287 19.6055 104.265 19.6031 104.242C19.5979 104.196 19.5917 104.151 19.5822 104.107C19.5731 104.065 19.5622 104.024 19.5493 103.984C19.5364 103.944 19.5226 103.905 19.5059 103.866C19.4888 103.826 19.4702 103.788 19.4497 103.75C19.4292 103.713 19.4073 103.678 19.384 103.643C19.3601 103.608 19.3359 103.575 19.3092 103.543C19.2815 103.509 19.2525 103.478 19.221 103.447C19.1915 103.418 19.1605 103.39 19.1281 103.363C19.0952 103.337 19.0619 103.312 19.0266 103.288C18.988 103.262 18.948 103.239 18.9066 103.218C18.8866 103.207 18.8694 103.193 18.8484 103.184L10.346 99.2772C11.8402 96.8634 13.2729 94.5335 14.6127 92.3428L41.404 109.661C41.7561 109.888 42.172 109.988 42.5837 109.947C42.6847 109.938 42.7862 109.919 42.8858 109.893C43.3899 109.756 43.8125 109.412 44.0488 108.946L49.2813 98.6249C49.7415 97.7172 49.3785 96.6076 48.4703 96.1473C47.5627 95.6866 46.453 96.0496 45.9927 96.9578L41.686 105.453L16.5338 89.1944C17.8541 87.026 19.0495 85.0511 20.0815 83.3396L21.559 84.2373C21.0968 83.2372 20.8572 82.117 20.9115 80.9407C21.0382 78.1953 22.7106 75.8916 25.0467 74.8187C25.3773 74.173 25.7952 73.3531 26.2874 72.3792C27.5824 72.625 32.9811 73.7295 38.1779 75.9636ZM31.3783 119.992C31.3807 120.712 30.8719 121.618 29.9037 122.622C29.8451 122.6 29.7879 122.578 29.7293 122.557C28.4314 122.079 27.2865 120.94 27.0068 119.848C26.8239 119.135 27.0974 118.714 27.3189 118.46C27.8149 117.89 28.3376 117.576 28.8745 117.524C28.9003 117.521 28.9265 117.519 28.9522 117.518C29.4897 117.491 29.8656 117.728 29.9213 117.779C30.0085 117.875 30.1229 117.989 30.2563 118.119C30.8466 118.697 31.3764 119.275 31.3783 119.992Z" fill="#FDF4F0"/>
<path d="M43.1863 97.3713C43.5408 97.5862 43.9377 97.6677 44.3208 97.6305C44.8787 97.5762 45.4052 97.2684 45.7187 96.7524C46.2476 95.8824 45.9703 94.7484 45.1003 94.2196L32.6266 86.6443C31.4593 87.6487 29.9689 88.2796 28.3413 88.3558L43.1863 97.3713Z" fill="#FDF4F0"/>
<path d="M35.8809 53.2694L68.4554 47.5514C54.6076 48.2514 42.4931 49.0909 37.2831 49.4687C40.6926 41.9264 44.0507 33.9524 46.3496 27.1967C47.7961 22.9467 49.0635 17.9395 50.309 12.5494C49.1779 13.104 48.0625 13.6838 46.9628 14.2904L40.0637 34.6651L35.8809 53.2694Z" fill="#FDF4F0"/>
<path d="M69.1712 27.0747L68.8782 33.4183L68.4556 47.5514L70.6192 24.0473L74.0549 5.28101C73.7557 5.32293 73.455 5.362 73.1563 5.40679L69.1998 26.825C69.1841 26.9075 69.175 26.9908 69.1712 27.0747Z" fill="#FDF4F0"/>
<path d="M246.502 129.004L221.879 142.383L240.186 183.524H264.788L256.577 146.7L246.502 129.004ZM259.299 168.237L262.116 180.765L238.798 178.31L236.623 172.889L245.445 169.046C246.645 168.524 247.195 167.127 246.672 165.927C246.15 164.726 244.753 164.177 243.553 164.701L234.858 168.487L225.519 145.204C231.595 141.381 238.294 136.991 245.734 131.911L255.16 149.83L259.276 168.134C259.283 168.169 259.291 168.203 259.299 168.237Z" fill="#FDF4F0"/>
<path d="M159.975 168.884C160.716 168.55 161.457 168.22 162.202 167.896C161.406 168.105 160.655 168.439 159.975 168.884Z" fill="#FDF4F0"/>
<path d="M163.951 179.151C165.487 179.221 166.841 178.389 167.539 177.132L162.681 176.907C162.145 177.152 161.61 177.402 161.075 177.655C161.749 178.517 162.771 179.096 163.951 179.151Z" fill="#FDF4F0"/>
<path d="M163.78 182.837C167.047 182.988 170.021 181.03 171.2 178.02L173.521 178.128L173.587 176.709C173.369 176.25 173.15 175.789 172.931 175.327L172.837 177.376L170.699 177.278C169.796 180.202 167.013 182.267 163.813 182.119C161.506 182.013 159.524 180.777 158.36 178.974C158.147 179.081 157.931 179.195 157.716 179.305C159.013 181.357 161.248 182.72 163.78 182.837Z" fill="#FDF4F0"/>
<path d="M170.859 173.824L172.248 173.889C172.131 173.643 172.017 173.4 171.9 173.154L171.444 173.133C171.213 173.229 170.986 173.324 170.756 173.42C170.793 173.554 170.83 173.688 170.859 173.824Z" fill="#FDF4F0"/>
<path d="M160.563 176.81C160.697 177.114 160.872 177.396 161.075 177.655C161.61 177.402 162.145 177.152 162.681 176.907L160.563 176.81Z" fill="#FDF4F0"/>
<path d="M164.311 171.338C162.777 171.268 161.422 172.1 160.723 173.356L167.698 173.679C167.119 172.362 165.846 171.409 164.311 171.338Z" fill="#FDF4F0"/>
<path d="M157.403 176.664L155.267 176.565L155.426 173.112L157.563 173.211C158.467 170.287 161.249 168.221 164.448 168.369C167.502 168.51 169.986 170.624 170.755 173.42C170.985 173.324 171.213 173.229 171.445 173.133L171.426 173.132C170.529 170.026 167.748 167.802 164.481 167.651C163.697 167.616 162.931 167.703 162.201 167.896C161.457 168.22 160.715 168.55 159.974 168.884C158.682 169.731 157.649 170.969 157.062 172.469L154.741 172.362L154.515 177.25L156.836 177.357C157.038 178.056 157.34 178.708 157.716 179.304C157.93 179.194 158.147 179.08 158.36 178.973C157.91 178.277 157.579 177.498 157.403 176.664Z" fill="#FDF4F0"/>
<path d="M172.996 173.923L172.931 175.327C173.15 175.788 173.37 176.25 173.588 176.709L173.748 173.239L171.899 173.154C172.016 173.4 172.132 173.643 172.249 173.889L172.996 173.923Z" fill="#FDF4F0"/>
<path d="M167.539 177.131C166.841 178.389 165.486 179.222 163.951 179.151C162.77 179.096 161.749 178.517 161.075 177.655C160.852 177.759 160.629 177.865 160.406 177.972C161.222 179.092 162.492 179.802 163.917 179.868C165.687 179.95 167.32 179.034 168.18 177.48L168.74 176.468L164.131 176.255C163.647 176.471 163.163 176.686 162.681 176.907L167.539 177.131Z" fill="#5B3A35"/>
<path d="M168.833 174.451L168.749 174.26C168.616 174.316 168.484 174.372 168.35 174.428L168.833 174.451Z" fill="#946B97"/>
<path d="M172.248 173.888L170.858 173.824C170.829 173.688 170.792 173.553 170.755 173.42C169.986 170.624 167.502 168.51 164.448 168.369C161.249 168.221 158.467 170.287 157.562 173.21L155.425 173.112L155.266 176.564L157.403 176.663C157.579 177.498 157.91 178.276 158.36 178.973C159.524 180.776 161.505 182.013 163.813 182.119C167.013 182.267 169.796 180.201 170.699 177.277L172.836 177.376L172.931 175.327L172.996 173.923L172.248 173.888ZM164.311 171.338C165.845 171.409 167.118 172.362 167.698 173.679L160.723 173.356C161.421 172.099 162.777 171.267 164.311 171.338ZM168.18 177.48C167.32 179.035 165.687 179.95 163.917 179.868C162.492 179.802 161.222 179.093 160.406 177.971C160.629 177.865 160.852 177.759 161.074 177.655C160.872 177.396 160.697 177.114 160.563 176.809L162.681 176.907C163.162 176.686 163.647 176.471 164.131 176.255L168.739 176.468L168.18 177.48ZM168.35 174.428C168.483 174.372 168.616 174.317 168.749 174.26L168.833 174.451L168.35 174.428Z" fill="#5B3A35"/>
<path d="M12.2383 72.7223L14.5601 72.8295L14.786 67.9415L12.4637 67.8343C11.8791 65.8074 10.4883 64.1608 8.68682 63.2164C8.62392 63.4537 8.55913 63.6905 8.49814 63.9292C10.221 64.8869 11.4822 66.5569 11.8967 68.5266L14.0346 68.6252L13.875 72.0781L11.7376 71.9795C10.9781 74.4375 8.88979 76.2828 6.34312 76.7231C6.32215 76.9694 6.2969 77.2138 6.27832 77.4606C8.94506 77.0666 11.2383 75.2761 12.2383 72.7223Z" fill="#FDF4F0"/>
<path d="M7.77337 67.0467C7.68331 67.4712 7.59755 67.8971 7.51465 68.3245L8.73724 68.3807C8.51283 67.8705 8.18121 67.4173 7.77337 67.0467Z" fill="#FDF4F0"/>
<path d="M8.57773 71.8336L6.92109 71.7569C6.83247 72.3525 6.74861 72.949 6.67285 73.5484C7.4795 73.2058 8.15178 72.6007 8.57773 71.8336Z" fill="#FDF4F0"/>
<path d="M9.40717 68.0939C9.07889 67.344 8.56812 66.7213 7.94634 66.252C7.88774 66.5164 7.82961 66.7813 7.77339 67.0467C8.18124 67.4178 8.51238 67.871 8.73679 68.3808L7.5142 68.3245C7.46798 68.5618 7.42176 68.7991 7.37793 69.0378L9.87171 69.1526L9.40717 68.0939Z" fill="#5B3A35"/>
<path d="M11.7377 71.9794L13.8751 72.0781L14.0347 68.6252L11.8969 68.5265C11.4824 66.5569 10.2212 64.8869 8.49829 63.9292C8.30199 64.6987 8.12046 65.4734 7.94656 66.2519C8.56881 66.7212 9.0791 67.344 9.40738 68.0939L9.87192 69.1526L7.37814 69.0378C7.25474 69.7034 7.13944 70.3719 7.03271 71.0437L9.77901 71.1704L9.2187 72.1819C8.63313 73.2411 7.6845 73.9934 6.58246 74.346C6.49145 75.135 6.41141 75.9269 6.34375 76.7231C8.88994 76.2828 10.9787 74.4375 11.7377 71.9794Z" fill="#5B3A35"/>
<path d="M9.21876 72.1819L9.7786 71.1704L7.03277 71.0437C6.99513 71.2809 6.95702 71.5187 6.92176 71.7569L8.57793 71.8341C8.15197 72.6007 7.48017 73.2063 6.67352 73.5489C6.64017 73.8138 6.61301 74.0801 6.58252 74.3465C7.68457 73.9934 8.6332 73.2411 9.21876 72.1819Z" fill="#5B3A35"/>
<path d="M149.752 61.0767L151.586 61.1615L151.755 57.4927L154.202 57.6057L154.287 55.7708L151.84 55.6574L151.925 53.8231L150.09 53.7392L150.006 55.5731L147.559 55.4602L147.475 57.295L149.921 57.4074L149.752 61.0767Z" fill="#FDF4F0"/>
<path d="M193.872 49.4325C191.727 49.3334 190.103 47.3427 190.202 45.1977C190.248 44.2124 190.804 43.1313 191.439 42.4748C189.882 42.9236 188.565 44.5216 188.486 46.2307C188.387 48.3752 190.045 50.1943 192.19 50.2934C193.35 50.3468 194.267 50.0848 195.016 49.3119C194.618 49.4258 194.308 49.4525 193.872 49.4325Z" fill="#FDF4F0"/>
<path d="M196.67 43.1137L195.392 43.7126L194.174 42.9993L194.348 44.3996L193.293 45.3368L194.679 45.6046L195.245 46.8968L195.927 45.6623L197.331 45.5231L196.368 44.493L196.67 43.1137Z" fill="#FDF4F0"/>
<path d="M104.394 21.9261C104.394 19.3246 103.742 16.3753 103.742 16.3753L102.518 16.3672L102.52 15.4939C102.522 14.3375 101.687 13.3994 99.5939 13.3956C97.5013 13.3913 96.8018 14.327 96.7999 15.4829L96.798 16.3296L95.3367 16.3201C95.3367 16.3201 94.6992 19.4227 94.5668 21.7922C94.3257 26.1017 104.394 26.1823 104.394 21.9261ZM97.4975 15.4843C97.4989 14.7149 98.1974 14.0907 99.5929 14.0931C100.988 14.0955 101.824 14.723 101.822 15.4924L101.82 16.3625L97.496 16.3343L97.4975 15.4843Z" fill="#FDF4F0"/>
<path d="M132.251 47.2784C132.469 47.3089 132.69 47.3323 132.915 47.3428C133.766 47.3823 134.586 47.2622 135.355 47.0221L132.278 47.0283C132.268 47.1126 132.261 47.1941 132.251 47.2784Z" fill="#DF1B75"/>
<path d="M133.397 39.7761C133.166 40.9939 132.964 42.1789 132.783 43.34L139.641 43.3257C140.043 42.4905 140.287 41.5628 140.333 40.579C140.496 37.0317 138.025 33.9814 134.648 33.302C134.498 34.0863 134.343 34.8881 134.18 35.7262C133.932 36.9984 133.67 38.3444 133.397 39.7761Z" fill="#F13C5E"/>
<path d="M132.251 47.2784C132.261 47.1941 132.268 47.1126 132.278 47.0283L135.354 47.0216C137.234 46.4346 138.792 45.0919 139.642 43.3257L132.784 43.34C132.965 42.1789 133.166 40.9939 133.398 39.7761C133.67 38.3443 133.932 36.9983 134.18 35.7262C134.344 34.8881 134.498 34.0862 134.648 33.302C134.296 33.2315 133.938 33.1776 133.569 33.1609C129.653 32.9799 126.332 36.0083 126.151 39.9243C125.981 43.6159 128.662 46.7762 132.251 47.2784Z" fill="#F13C5E"/>
<path d="M56.2913 67.3335C56.2651 66.0433 55.9001 64.8292 55.266 63.7901C54.0786 61.8447 51.9775 60.5044 49.5294 60.3915C46.4186 60.2481 43.6904 62.132 42.606 64.8745C42.3254 65.5849 42.1486 66.3496 42.1114 67.1553C42.0895 67.6303 42.1167 68.0958 42.1853 68.5485C42.6803 71.8303 45.4338 74.4146 48.8752 74.5738C52.7917 74.7543 56.1126 71.7265 56.2932 67.81C56.3008 67.6494 56.2946 67.4917 56.2913 67.3335Z" fill="#F13C5E"/>
<path d="M28.33 74.1764C27.1588 74.1225 26.043 74.3608 25.0462 74.8187C22.7102 75.8921 21.0383 78.1958 20.912 80.9407C20.8572 82.117 21.0969 83.2372 21.5586 84.2373C22.6344 86.5662 24.9347 88.2324 27.6749 88.3591C27.8993 88.3696 28.1213 88.3658 28.3409 88.3558C29.9685 88.2796 31.4594 87.6492 32.6272 86.6448C34.0561 85.4151 34.9994 83.6269 35.0928 81.5948C35.2739 77.6784 32.2465 74.3574 28.33 74.1764Z" fill="#F13C5E"/>
<path d="M176.01 153.229C174.619 153.165 173.308 153.511 172.182 154.152C173.453 156.808 174.722 159.462 175.981 162.102C178.106 161.196 180.329 160.226 182.683 159.154C182.147 155.919 179.415 153.386 176.01 153.229Z" fill="#F13C5E"/>
<path d="M172.182 154.152C170.135 155.316 168.708 157.467 168.591 159.993C168.411 163.91 171.438 167.231 175.354 167.411C179.271 167.592 182.592 164.564 182.772 160.648C182.796 160.138 182.762 159.638 182.682 159.154C180.329 160.226 178.107 161.196 175.981 162.102C174.721 159.463 173.453 156.808 172.182 154.152Z" fill="#F13C5E"/>
<path d="M116.476 64.2303C116.385 63.3694 116.143 62.5522 115.768 61.808C114.653 59.5901 112.41 58.0211 109.754 57.8982C106.428 57.7452 103.539 59.9093 102.631 62.9629C102.469 63.5051 102.363 64.0712 102.336 64.662C102.322 64.9526 102.332 65.2385 102.353 65.5215C102.56 68.326 104.405 70.7063 106.974 71.6512C107.64 71.8956 108.353 72.0461 109.099 72.0804C110.111 72.1271 111.081 71.9566 111.969 71.6149C114.52 70.6344 116.383 68.2216 116.517 65.3166C116.535 64.9479 116.515 64.5867 116.476 64.2303Z" fill="#7328A1"/>
<path d="M169.254 107.695C168.932 106.105 168.22 104.663 167.217 103.471C166.265 102.339 165.056 101.438 163.681 100.848C162.462 100.323 161.116 100.039 159.702 100.072C157.867 100.115 156.171 100.684 154.74 101.617C153.429 102.471 152.346 103.634 151.589 105.006C150.919 106.219 150.508 107.589 150.425 109.047C150.411 109.303 150.398 109.56 150.404 109.82C150.511 114.327 157.586 125.041 159.611 128.019C159.95 128.516 160.152 128.806 160.152 128.806C160.152 128.806 166.784 118.828 168.845 112.508C169.241 111.296 169.47 110.217 169.45 109.37C169.437 108.796 169.364 108.238 169.254 107.695ZM163.723 113.068C162.733 114.007 161.399 114.587 159.926 114.587C158.886 114.587 157.916 114.294 157.086 113.794C155.549 112.869 154.503 111.221 154.417 109.317C154.413 109.233 154.404 109.15 154.404 109.065C154.404 107.65 154.941 106.364 155.816 105.387C156.827 104.258 158.292 103.543 159.926 103.543C161.733 103.543 163.333 104.415 164.34 105.757C164.853 106.439 165.21 107.244 165.362 108.121C165.415 108.428 165.449 108.742 165.449 109.065C165.449 110.643 164.784 112.062 163.723 113.068Z" fill="#7328A1"/>
<path d="M164.34 105.757C162.109 105.773 158.537 105.57 155.815 105.388C154.94 106.364 154.404 107.651 154.404 109.065C154.404 109.15 154.413 109.233 154.417 109.318L165.362 108.121C165.21 107.244 164.853 106.44 164.34 105.757Z" fill="white"/>
<path d="M159.926 114.587C161.398 114.587 162.732 114.007 163.723 113.068L157.085 113.794C157.916 114.294 158.886 114.587 159.926 114.587Z" fill="white"/>
<path d="M164.339 105.757C163.332 104.415 161.733 103.543 159.926 103.543C158.291 103.543 156.826 104.258 155.815 105.388C158.537 105.57 162.108 105.773 164.339 105.757Z" fill="white"/>
<path d="M165.449 109.065C165.449 108.742 165.416 108.428 165.362 108.121L154.417 109.317C154.503 111.22 155.55 112.869 157.086 113.794L163.723 113.068C164.783 112.062 165.449 110.643 165.449 109.065Z" fill="white"/>
<g opacity="0.197085">
<path d="M113.993 153.218C131.469 153.218 145.658 167.408 145.658 184.884C145.658 202.36 131.469 216.549 113.993 216.549C96.5165 216.549 82.3271 202.36 82.3271 184.884C82.3271 167.408 96.5165 153.218 113.993 153.218Z" fill="#904FC8"/>
</g>
<g opacity="0.0832722">
<path d="M113.258 146.181C134.716 146.181 152.138 163.603 152.138 185.061C152.138 206.519 134.716 223.941 113.258 223.941C91.8001 223.941 74.3779 206.519 74.3779 185.061C74.3779 163.603 91.8001 146.181 113.258 146.181Z" fill="#904FC8"/>
</g>
<path d="M112.96 171.101C120.705 171.101 126.992 177.389 126.992 185.133C126.992 192.877 120.705 199.165 112.96 199.165C105.216 199.165 98.9282 192.877 98.9282 185.133C98.9282 177.389 105.216 171.101 112.96 171.101Z" fill="#904FC8"/>
</g>
<defs>
<clipPath id="clip0_111_846">
<rect width="300" height="300" fill="white"/>
</clipPath>
</defs>
</svg>
