<svg width="25" height="25" viewBox="0 0 25 25" fill="none" xmlns="http://www.w3.org/2000/svg">
<path d="M12.4998 1.04167C6.1665 1.04167 1.0415 6.16667 1.0415 12.5C1.0415 18.8333 6.1665 23.9583 12.4998 23.9583C18.8332 23.9583 23.9582 18.8333 23.9582 12.5C23.9582 6.16667 18.8332 1.04167 12.4998 1.04167ZM12.4998 20.8333C10.2897 20.8333 8.17008 19.9554 6.60728 18.3926C5.04448 16.8298 4.1665 14.7101 4.1665 12.5C4.1665 10.2899 5.04448 8.17025 6.60728 6.60744C8.17008 5.04464 10.2897 4.16667 12.4998 4.16667C14.71 4.16667 16.8296 5.04464 18.3924 6.60744C19.9552 8.17025 20.8332 10.2899 20.8332 12.5C20.8332 14.7101 19.9552 16.8298 18.3924 18.3926C16.8296 19.9554 14.71 20.8333 12.4998 20.8333M13.5415 14.0625C13.5415 14.7188 13.9582 15.3125 14.5832 15.5313V18.75H10.4165V12.4063C11.229 12.125 11.6561 11.25 11.3853 10.4167C11.3053 10.1961 11.1767 9.9963 11.009 9.8322C10.8413 9.6681 10.6388 9.54388 10.4165 9.46875V6.25H14.5832V12.5938C13.9582 12.8125 13.5415 13.4063 13.5415 14.0625Z" fill="#979797"/>
</svg>
